<svg width="20" height="14" viewBox="0 0 20 14" fill="none" xmlns="http://www.w3.org/2000/svg">
<path d="M19.5267 5.77001C17.3225 3.34501 13.6667 0.781676 10 0.833343C6.33333 0.780843 2.6775 3.34584 0.473332 5.77001C-0.152244 6.46942 -0.152244 7.52726 0.473332 8.22668C2.65167 10.6258 6.25583 13.1667 9.86583 13.1667H10.1225C13.745 13.1667 17.3483 10.6258 19.5292 8.22584C20.1539 7.52606 20.1528 6.46852 19.5267 5.77001ZM6.16667 7.00001V7.00001C6.16667 4.88292 7.88291 3.16668 10 3.16668C12.1171 3.16668 13.8333 4.88292 13.8333 7.00001C13.8333 9.1171 12.1171 10.8333 10 10.8333C7.88291 10.8333 6.16667 9.1171 6.16667 7.00001V7.00001Z" fill="#73798C"/>
<path d="M10 8.66668C10.9205 8.66668 11.6667 7.92048 11.6667 7.00001C11.6667 6.07954 10.9205 5.33334 10 5.33334C9.07957 5.33334 8.33337 6.07954 8.33337 7.00001C8.33337 7.92048 9.07957 8.66668 10 8.66668Z" fill="#73798C"/>
</svg>
