<svg width="226" height="48" viewBox="0 0 226 48" fill="none" xmlns="http://www.w3.org/2000/svg">
<g clip-path="url(#clip0)">
<path d="M49.9601 17.5639C47.1071 13.3534 43.222 11.3083 38.3657 11.3083C33.4487 11.3083 29.4423 13.0526 26.2857 16.6015C23.1291 20.1504 21.5508 24.5414 21.5508 29.7143C21.5508 34.8271 23.1291 39.218 26.2857 42.7669C29.4423 46.3158 33.4487 48.0602 38.3657 48.0602C43.2827 48.0602 47.1071 46.015 49.9601 41.8647V47.3383H57.973V11.9699H49.9601V17.5639ZM47.1678 37.3534C45.2859 39.3384 42.9185 40.3609 40.1261 40.3609C37.0909 40.3609 34.6021 39.3384 32.6596 37.3534C30.717 35.3083 29.7458 32.782 29.7458 29.6541C29.7458 26.5865 30.717 24 32.6596 21.9549C34.6021 19.9098 37.0909 18.8872 40.1261 18.8872C42.9792 18.8872 45.2859 19.9098 47.1678 21.9549C49.0496 24 49.9601 26.5865 49.9601 29.6541C49.9601 32.782 49.0496 35.3684 47.1678 37.3534Z" fill="#FF6930"/>
<path d="M83.5896 11.2481C78.4905 11.2481 74.6661 13.1729 72.0559 17.0226V11.9699H64.043V47.2782H72.0559V28.812C72.0559 25.9248 72.9057 23.5188 74.6054 21.6541C76.3051 19.7895 78.4905 18.8872 81.1007 18.8872C83.9538 18.8872 85.8356 19.609 86.8676 21.1128C87.8995 22.6165 88.3852 24.9023 88.3852 28.0301V47.2782H96.3981V27.0075C96.3981 21.9549 95.4268 18.0451 93.4236 15.3383C91.481 12.6316 88.203 11.2481 83.5896 11.2481Z" fill="#FF6930"/>
<path d="M13.2334 3.12782L5.28122 4.75188V11.9699H0V18.4662H5.28122V47.2782H13.2334V18.4662H19.7894V11.9699H13.2334V3.12782Z" fill="#FF6930"/>
<path d="M225.15 11.9699H217.137V47.2782H225.15V11.9699Z" fill="#FF6930"/>
<path d="M121.65 11.2481C116.551 11.2481 112.727 13.1729 110.116 17.0226V11.9699H102.104V47.2782H110.116V28.812C110.116 25.9248 110.966 23.5188 112.666 21.6541C114.366 19.7895 116.551 18.8872 119.161 18.8872C122.014 18.8872 123.896 19.609 124.928 21.1128C125.96 22.6165 126.446 24.9023 126.446 28.0301V47.2782H134.459V27.0075C134.459 21.9549 133.487 18.0451 131.484 15.3383C129.542 12.6316 126.264 11.2481 121.65 11.2481Z" fill="#FF6930"/>
<path d="M221.083 9.62406C222.418 9.62406 223.572 9.14286 224.543 8.18045C225.514 7.21804 226 6.07519 226 4.75188C226 3.42857 225.514 2.28571 224.543 1.38346C223.572 0.481203 222.418 0 221.083 0C219.747 0 218.594 0.481203 217.683 1.38346C216.773 2.28571 216.287 3.42857 216.287 4.75188C216.287 6.07519 216.773 7.21804 217.683 8.18045C218.594 9.14286 219.747 9.62406 221.083 9.62406Z" fill="#FF6930"/>
<path d="M212.463 23.6391C212.463 10.5865 201.779 0 188.606 0H162.989C149.817 0 139.133 10.5865 139.133 23.6391C139.133 36.6917 149.817 47.2782 162.989 47.2782H188.606C201.779 47.2782 212.463 36.6917 212.463 23.6391ZM162.989 38.6767C154.612 38.6767 147.813 31.9398 147.813 23.6391C147.813 15.3383 154.612 8.6015 162.989 8.6015H188.606C196.983 8.6015 203.782 15.3383 203.782 23.6391C203.782 31.9398 196.983 38.6767 188.606 38.6767H162.989Z" fill="#FF6930"/>
<path d="M150.181 31.6993C149.999 31.4586 149.817 31.1579 149.634 30.8571C149.634 30.8571 149.634 30.8571 149.634 30.797C149.392 30.3158 149.149 29.8346 148.967 29.2932C148.906 29.1128 148.845 28.9323 148.785 28.812C148.663 28.4511 148.542 28.0902 148.42 27.6692C148.36 27.4887 148.299 27.3083 148.299 27.0677C148.178 26.7068 148.117 26.2857 148.056 25.9248C148.056 25.7444 147.995 25.5639 147.995 25.3835C147.935 24.8421 147.874 24.2406 147.874 23.6391H139.193C139.193 23.6992 139.193 23.6992 139.193 23.7594C139.193 24.2406 139.254 24.6617 139.254 25.1429C140.711 39.218 162.868 38.7368 163.05 38.7368C157.587 38.6767 152.852 35.8496 150.181 31.6993Z" fill="url(#paint0_linear)"/>
<path d="M201.353 15.6391C201.535 15.8797 201.717 16.1805 201.9 16.4812C201.9 16.4812 201.9 16.4812 201.9 16.5414C202.142 17.0226 202.385 17.5038 202.567 18.0451C202.628 18.2256 202.689 18.406 202.749 18.5263C202.871 18.8872 202.992 19.2481 203.114 19.6692C203.174 19.8496 203.235 20.0301 203.235 20.2707C203.356 20.6316 203.417 21.0526 203.478 21.4135C203.478 21.594 203.539 21.7744 203.539 21.9549C203.599 22.4962 203.66 23.0977 203.66 23.6992H212.462C212.462 23.6391 212.462 23.6391 212.462 23.5789C212.462 23.0977 212.401 22.6767 212.401 22.1955C210.944 8.1203 188.788 8.6015 188.605 8.6015C193.947 8.6015 198.682 11.4286 201.353 15.6391Z" fill="url(#paint1_linear)"/>
</g>
<defs>
<linearGradient id="paint0_linear" x1="157.968" y1="40.7985" x2="142.611" y2="24.8298" gradientUnits="userSpaceOnUse">
<stop offset="0.1678" stop-color="#5C2611" stop-opacity="0.4"/>
<stop offset="0.6636" stop-color="#CD5426" stop-opacity="0.1208"/>
<stop offset="0.8782" stop-color="#FF6930" stop-opacity="0"/>
</linearGradient>
<linearGradient id="paint1_linear" x1="193.587" y1="6.50087" x2="208.944" y2="22.4694" gradientUnits="userSpaceOnUse">
<stop offset="0.1678" stop-color="#5C2611" stop-opacity="0.4"/>
<stop offset="0.6636" stop-color="#CD5426" stop-opacity="0.1208"/>
<stop offset="0.8782" stop-color="#FF6930" stop-opacity="0"/>
</linearGradient>
<clipPath id="clip0">
<rect width="226" height="48" fill="white"/>
</clipPath>
</defs>
</svg>
