<svg width="16" height="16" viewBox="0 0 16 16" fill="none" xmlns="http://www.w3.org/2000/svg">
<path d="M13.7898 3.41699H2.21023C1.95605 3.41699 1.75 3.62305 1.75 3.87723V13.7901C1.75 14.0443 1.95605 14.2503 2.21023 14.2503H13.7898C14.0439 14.2503 14.25 14.0443 14.25 13.7901V3.87723C14.25 3.62305 14.0439 3.41699 13.7898 3.41699Z" stroke="#73798C" stroke-linecap="round" stroke-linejoin="round"/>
<path d="M1.75 6.75H14.25" stroke="#73798C" stroke-linecap="round" stroke-linejoin="round"/>
<path d="M5.0835 4.66667V1.75" stroke="#73798C" stroke-linecap="round" stroke-linejoin="round"/>
<path d="M10.9165 4.66667V1.75" stroke="#73798C" stroke-linecap="round" stroke-linejoin="round"/>
<path d="M4.5 8.66699C4.22386 8.66699 4 8.89085 4 9.16699C4 9.44313 4.22386 9.66699 4.5 9.66699C4.77614 9.66699 5 9.44313 5 9.16699C5 8.89085 4.77614 8.66699 4.5 8.66699Z" fill="#73798C"/>
<path d="M4.5 11.583C4.22386 11.583 4 11.8069 4 12.083C4 12.3592 4.22386 12.583 4.5 12.583C4.77614 12.583 5 12.3592 5 12.083C5 11.8069 4.77614 11.583 4.5 11.583Z" fill="#73798C"/>
<path d="M8.0415 8.66699C7.76536 8.66699 7.5415 8.89085 7.5415 9.16699C7.5415 9.44313 7.76536 9.66699 8.0415 9.66699C8.31765 9.66699 8.5415 9.44313 8.5415 9.16699C8.5415 8.89085 8.31765 8.66699 8.0415 8.66699Z" fill="#73798C"/>
<path d="M8.0415 11.583C7.76536 11.583 7.5415 11.8069 7.5415 12.083C7.5415 12.3592 7.76536 12.583 8.0415 12.583C8.31765 12.583 8.5415 12.3592 8.5415 12.083C8.5415 11.8069 8.31765 11.583 8.0415 11.583Z" fill="#73798C"/>
<path d="M11.5835 8.66699C11.3074 8.66699 11.0835 8.89085 11.0835 9.16699C11.0835 9.44313 11.3074 9.66699 11.5835 9.66699C11.8596 9.66699 12.0835 9.44313 12.0835 9.16699C12.0835 8.89085 11.8596 8.66699 11.5835 8.66699Z" fill="#73798C"/>
<path d="M11.5835 11.583C11.3074 11.583 11.0835 11.8069 11.0835 12.083C11.0835 12.3592 11.3074 12.583 11.5835 12.583C11.8596 12.583 12.0835 12.3592 12.0835 12.083C12.0835 11.8069 11.8596 11.583 11.5835 11.583Z" fill="#73798C"/>
</svg>
