<svg width="16" height="16" viewBox="0 0 16 16" fill="none" xmlns="http://www.w3.org/2000/svg">
<path d="M8.33325 10.2219C8.9795 10.2212 9.59907 9.95753 10.056 9.48885C10.513 9.02017 10.77 8.38471 10.7708 7.7219V3.83301C10.7708 3.16997 10.5139 2.53408 10.0568 2.06524C9.5997 1.5964 8.97972 1.33301 8.33325 1.33301C7.68679 1.33301 7.0668 1.5964 6.60968 2.06524C6.15256 2.53408 5.89575 3.16997 5.89575 3.83301V7.7219C5.89647 8.38471 6.15351 9.02017 6.61047 9.48885C7.06744 9.95753 7.68701 10.2212 8.33325 10.2219Z" fill="#73798C"/>
<path d="M12.125 5.77734C11.9813 5.77734 11.8436 5.83588 11.742 5.94006C11.6404 6.04425 11.5833 6.18556 11.5833 6.3329V7.72179C11.5833 8.60584 11.2409 9.45369 10.6314 10.0788C10.0219 10.7039 9.19529 11.0551 8.33333 11.0551C7.47138 11.0551 6.64473 10.7039 6.03524 10.0788C5.42574 9.45369 5.08333 8.60584 5.08333 7.72179V6.3329C5.08333 6.18556 5.02627 6.04425 4.92468 5.94006C4.8231 5.83588 4.68533 5.77734 4.54167 5.77734C4.39801 5.77734 4.26023 5.83588 4.15865 5.94006C4.05707 6.04425 4 6.18556 4 6.3329V7.72179C4.0014 8.78347 4.3727 9.80968 5.04691 10.6153C5.72113 11.4209 6.65386 11.9528 7.67683 12.1151C7.7088 12.1202 7.73795 12.1368 7.75901 12.1619C7.78007 12.1871 7.79165 12.2192 7.79167 12.2523V14.1107C7.79167 14.258 7.84874 14.3993 7.95032 14.5035C8.0519 14.6077 8.18967 14.6662 8.33333 14.6662C8.47699 14.6662 8.61477 14.6077 8.71635 14.5035C8.81793 14.3993 8.875 14.258 8.875 14.1107V12.2523C8.87501 12.2192 8.8866 12.1871 8.90766 12.1619C8.92872 12.1368 8.95787 12.1202 8.98983 12.1151C10.0128 11.9528 10.9455 11.4209 11.6198 10.6153C12.294 9.80968 12.6653 8.78347 12.6667 7.72179V6.3329C12.6667 6.18556 12.6096 6.04425 12.508 5.94006C12.4064 5.83588 12.2687 5.77734 12.125 5.77734Z" fill="#73798C"/>
</svg>
