<svg width="10" height="10" viewBox="0 0 10 10" fill="none" xmlns="http://www.w3.org/2000/svg">
<path d="M8.73322 1.67388C8.70929 1.64695 8.67878 1.62669 8.64466 1.61511C8.61054 1.60352 8.574 1.601 8.53862 1.60779C8.50324 1.61458 8.47022 1.63045 8.44282 1.65385C8.41542 1.67724 8.39457 1.70736 8.38232 1.74124L7.92123 3.01764C7.86605 3.15564 7.77489 3.27633 7.65724 3.36715C7.53959 3.45796 7.39974 3.51559 7.25227 3.53402H6.07232C6.03933 3.53815 6.0078 3.55013 5.98039 3.56897C5.95298 3.58781 5.9305 3.61294 5.91481 3.64227C5.89913 3.6716 5.89072 3.70426 5.89027 3.73751C5.88983 3.77076 5.89736 3.80364 5.91225 3.83337L6.28021 4.78132C6.29743 4.81588 6.32394 4.84496 6.35677 4.86531C6.38959 4.88565 6.42744 4.89644 6.46605 4.89648H6.81072C6.84612 4.89652 6.88091 4.90559 6.91182 4.92284C6.94272 4.94009 6.96871 4.96494 6.98733 4.99505C7.00594 5.02515 7.01656 5.05951 7.01817 5.09487C7.01979 5.13022 7.01236 5.16541 6.99657 5.19708L5.8424 7.56362C5.77847 7.73216 5.66218 7.87577 5.51061 7.97334C5.35904 8.07091 5.18017 8.11732 5.00028 8.10573C4.82039 8.09415 4.64896 8.02519 4.51115 7.90898C4.37334 7.79278 4.27643 7.63545 4.23464 7.4601L3.82262 5.7276C3.80534 5.69311 3.7788 5.66412 3.74598 5.64385C3.71316 5.62358 3.67534 5.61285 3.63677 5.61285H3.45175C3.09338 5.61285 2.74969 5.47049 2.49628 5.21708C2.24288 4.96367 2.10052 4.61998 2.10052 4.26161C2.10052 3.90324 2.24288 3.55955 2.49628 3.30614C2.74969 3.05273 3.09338 2.91037 3.45175 2.91037H5.15639C5.21153 2.91037 5.2644 2.88847 5.30339 2.84948C5.34237 2.8105 5.36427 2.75762 5.36427 2.70249V2.22602C5.36427 2.06039 5.3148 1.89853 5.22221 1.76119C5.12961 1.62386 4.99811 1.5173 4.84457 1.45519L4.72649 1.40779C4.69 1.39339 4.65833 1.36895 4.63515 1.3373C4.61196 1.30565 4.5982 1.26809 4.59546 1.22896C4.59272 1.18982 4.60111 1.15071 4.61966 1.11614C4.63822 1.08157 4.66617 1.05296 4.7003 1.03361L5.83159 0.451533C5.87066 0.43154 5.90239 0.399697 5.92226 0.360566C5.94212 0.321434 5.94908 0.277021 5.94216 0.233688C5.93524 0.190354 5.91478 0.150322 5.88372 0.119326C5.85265 0.0883292 5.81258 0.0679579 5.76923 0.0611294C5.51844 0.0208961 5.26487 0.000460499 5.01087 1.183e-05C3.86599 -0.00247765 2.75494 0.388012 1.86335 1.10623C0.971772 1.82445 0.353677 2.82689 0.112348 3.94605C-0.12898 5.06522 0.0210774 6.2333 0.537448 7.25512C1.05382 8.27694 1.90522 9.0906 2.94939 9.56015C3.99356 10.0297 5.16724 10.1267 6.27431 9.83488C7.38139 9.5431 8.3548 8.88022 9.03188 7.95701C9.70897 7.0338 10.0487 5.90619 9.99436 4.7626C9.94 3.61901 9.49482 2.52871 8.73322 1.67388Z" fill="#73798C"/>
</svg>
