<svg width="12" height="14" viewBox="0 0 12 14" fill="none" xmlns="http://www.w3.org/2000/svg">
<path d="M10.2104 5.61079H9.78931V4.08301C9.78931 3.08845 9.39006 2.13462 8.6794 1.43136C7.96873 0.728096 7.00487 0.333008 5.99984 0.333008C4.99481 0.333008 4.03094 0.728096 3.32027 1.43136C2.60961 2.13462 2.21036 3.08845 2.21036 4.08301V5.61079H1.78931C1.49152 5.61079 1.20593 5.72785 0.995366 5.93622C0.784799 6.1446 0.666504 6.42721 0.666504 6.7219V12.5552C0.666504 12.8499 0.784799 13.1325 0.995366 13.3409C1.20593 13.5493 1.49152 13.6663 1.78931 13.6663H10.2104C10.5081 13.6663 10.7937 13.5493 11.0043 13.3409C11.2149 13.1325 11.3332 12.8499 11.3332 12.5552V6.7219C11.3332 6.42721 11.2149 6.1446 11.0043 5.93622C10.7937 5.72785 10.5081 5.61079 10.2104 5.61079ZM4.87703 8.94412C4.87614 8.74887 4.92726 8.55683 5.02523 8.38735C5.12321 8.21787 5.26459 8.07694 5.43513 7.97874C5.60566 7.88054 5.79934 7.82854 5.99665 7.82799C6.19396 7.82744 6.38793 7.87835 6.55902 7.97559C6.73012 8.07283 6.8723 8.21298 6.97125 8.3819C7.07019 8.55083 7.12241 8.74258 7.12263 8.93783C7.12286 9.13309 7.07108 9.32495 6.97253 9.4941C6.87397 9.66325 6.73211 9.80371 6.56124 9.90134V11.1663C6.56124 11.3137 6.50209 11.455 6.39681 11.5592C6.29153 11.6634 6.14873 11.7219 5.99984 11.7219C5.85094 11.7219 5.70815 11.6634 5.60286 11.5592C5.49758 11.455 5.43843 11.3137 5.43843 11.1663V9.90134C5.26826 9.80451 5.12681 9.66509 5.02828 9.49708C4.92974 9.32907 4.87758 9.13838 4.87703 8.94412ZM3.61387 4.08301C3.61387 3.4568 3.86525 2.85624 4.3127 2.41345C4.76016 1.97066 5.36704 1.7219 5.99984 1.7219C6.63263 1.7219 7.23951 1.97066 7.68697 2.41345C8.13442 2.85624 8.3858 3.4568 8.3858 4.08301V5.33301C8.3858 5.40668 8.35623 5.47733 8.30359 5.52943C8.25094 5.58152 8.17955 5.61079 8.1051 5.61079H3.89457C3.82013 5.61079 3.74873 5.58152 3.69609 5.52943C3.64345 5.47733 3.61387 5.40668 3.61387 5.33301V4.08301Z" fill="#73798C"/>
</svg>
