<svg width="14" height="12" viewBox="0 0 14 12" fill="none" xmlns="http://www.w3.org/2000/svg">
<path d="M12.461 7.75957L10.6871 6.88745C10.6642 6.87618 10.645 6.85896 10.6316 6.83772C10.6181 6.81648 10.611 6.79203 10.611 6.7671V5.90361C10.6109 5.88181 10.6164 5.86032 10.6268 5.84103C10.6373 5.82175 10.6525 5.80524 10.671 5.79297C10.9066 5.61952 11.0979 5.39573 11.2302 5.13894C11.3624 4.88215 11.4321 4.59923 11.4338 4.31209C11.4354 4.29291 11.4412 4.27428 11.4507 4.25743C11.4603 4.24059 11.4735 4.22592 11.4893 4.21441C11.5919 4.12704 11.6723 4.01782 11.7243 3.89528C11.7762 3.77273 11.7983 3.64017 11.7888 3.50797C11.8014 3.27149 11.7194 3.03944 11.5599 2.86035C11.5424 2.84285 11.5301 2.82105 11.5243 2.79729C11.5185 2.77353 11.5195 2.7487 11.5271 2.72543C11.742 2.18003 11.8064 1.58951 11.7138 1.01249C11.5216 0.265568 10.4755 4.50881e-05 9.6388 4.50881e-05C9.25675 -0.00186352 8.87694 0.0568343 8.51436 0.173822C8.49481 0.180179 8.47699 0.19077 8.46227 0.204793C8.44754 0.218817 8.43629 0.235907 8.42936 0.254774C8.42222 0.273493 8.41946 0.293523 8.42129 0.313407C8.42311 0.333291 8.42948 0.35253 8.43992 0.369726C8.52654 0.509061 8.59168 0.659976 8.63325 0.817661C8.75557 1.41249 8.72446 2.02747 8.54269 2.60778C8.53387 2.63892 8.53703 2.67211 8.55158 2.70115C8.6739 2.95337 8.736 3.22917 8.73325 3.50797C8.74072 3.90272 8.61204 4.28856 8.36769 4.60406C8.35303 4.62184 8.34344 4.64306 8.33992 4.66558C8.27416 5.09472 8.10951 5.5039 7.85825 5.86259C7.842 5.88503 7.83327 5.91179 7.83325 5.93923V6.29758C7.83327 6.32466 7.84164 6.35111 7.85728 6.37353C7.87293 6.39594 7.89514 6.41329 7.92103 6.42332L9.41158 6.997C9.93038 7.1946 10.3756 7.53992 10.6888 7.98766C11.002 8.4354 11.1685 8.96465 11.1666 9.50598V11.0635C11.1666 11.1027 11.1638 11.1418 11.1582 11.1806C11.1557 11.1997 11.1574 11.2191 11.1632 11.2375C11.169 11.2559 11.1788 11.2729 11.1919 11.2874C11.2049 11.3018 11.2211 11.3134 11.2391 11.3213C11.2572 11.3292 11.2768 11.3333 11.2966 11.3333H13.3888C13.4625 11.3333 13.5331 11.3049 13.5852 11.2543C13.6373 11.2037 13.6666 11.1351 13.6666 11.0635V9.50598C13.6692 9.13099 13.5556 8.76391 13.3406 8.45245C13.1256 8.141 12.8191 7.89958 12.461 7.75957Z" fill="#73798C"/>
<path d="M10.3332 9.50593C10.3346 9.12698 10.218 8.75649 9.99879 8.44302C9.7796 8.12955 9.46801 7.88773 9.10489 7.74927L6.8099 6.86635C6.7841 6.85635 6.76195 6.83909 6.74631 6.81678C6.73067 6.79448 6.72225 6.76814 6.72212 6.74115V5.9041C6.72205 5.8823 6.72748 5.86082 6.73794 5.84153C6.7484 5.82224 6.76357 5.80574 6.78212 5.79347C7.01776 5.61996 7.20913 5.39608 7.3414 5.13919C7.47367 4.8823 7.5433 4.59928 7.5449 4.31205C7.54649 4.29286 7.55226 4.27423 7.56184 4.25739C7.57142 4.24055 7.58458 4.22588 7.60045 4.21436C7.70304 4.127 7.78345 4.01778 7.83539 3.89523C7.88734 3.77268 7.90941 3.64013 7.8999 3.50792C7.91249 3.27145 7.83048 3.0394 7.67101 2.86031C7.65349 2.8428 7.64119 2.82101 7.63542 2.79725C7.62965 2.77349 7.63062 2.74865 7.63823 2.72539C7.85315 2.17998 7.9175 1.58947 7.8249 1.01244C7.63268 0.265523 6.58657 0 5.74991 0C5.03213 0 4.16103 0.195364 3.80547 0.723711C3.79296 0.742175 3.776 0.757385 3.75605 0.768015C3.7361 0.778645 3.71378 0.784371 3.69103 0.784695C3.58072 0.781121 3.47086 0.800072 3.36856 0.840325C3.26626 0.880577 3.1738 0.941235 3.09714 1.01838C2.70103 1.43339 2.89881 2.23428 3.04159 2.72431C3.04807 2.74748 3.04815 2.77191 3.04181 2.79513C3.03546 2.81834 3.02293 2.83952 3.00547 2.85653C2.95973 2.90095 2.92098 2.95169 2.89048 3.0071C2.80694 3.16143 2.76435 3.33357 2.76659 3.50792C2.75707 3.64013 2.77915 3.77268 2.83109 3.89523C2.88303 4.01778 2.96344 4.127 3.06603 4.21436C3.0819 4.22588 3.09506 4.24055 3.10464 4.25739C3.11422 4.27423 3.12 4.29286 3.12159 4.31205C3.12318 4.59928 3.19281 4.8823 3.32509 5.13919C3.45736 5.39608 3.64872 5.61996 3.88436 5.79347C3.90281 5.80584 3.9179 5.82236 3.92835 5.84163C3.9388 5.86089 3.94429 5.88233 3.94436 5.9041V6.74169C3.94438 6.76871 3.93602 6.79511 3.92036 6.81745C3.9047 6.83979 3.88248 6.85702 3.85658 6.86689L1.55881 7.75521C1.19639 7.89387 0.885495 8.13559 0.666826 8.44873C0.448156 8.76188 0.331897 9.13186 0.333264 9.51025V11.0634C0.333264 11.135 0.36253 11.2036 0.414623 11.2543C0.466716 11.3049 0.53737 11.3333 0.61104 11.3333H10.0554C10.1291 11.3333 10.1998 11.3049 10.2519 11.2543C10.304 11.2036 10.3332 11.135 10.3332 11.0634V9.50593Z" fill="#73798C"/>
</svg>
