<svg width="10" height="18" viewBox="0 0 10 18" fill="none" xmlns="http://www.w3.org/2000/svg">
<path d="M9.99999 9.01938C10.0005 9.47887 9.81146 9.91634 9.48107 10.22L2.06164 17.0329C1.54176 17.4882 0.766683 17.4175 0.330451 16.8748C-0.0914945 16.35 -0.0437067 15.5716 0.438972 15.1073L6.92698 9.14993C6.99606 9.08673 7.00297 8.97705 6.94242 8.90495C6.93762 8.89923 6.93246 8.89385 6.92698 8.88883L0.438973 2.93146C-0.0809037 2.47614 -0.148712 1.66714 0.28752 1.12452C0.723752 0.581895 1.49883 0.511121 2.0187 0.966441C2.03331 0.97923 2.04762 0.992372 2.06164 1.00585L9.47841 7.81666C9.8096 8.12085 9.99957 8.55891 9.99999 9.01938Z" fill="#73798C"/>
</svg>
