<svg width="20" height="20" viewBox="0 0 20 20" fill="none" xmlns="http://www.w3.org/2000/svg">
<path d="M11.9166 10.1494C11.8352 10.0682 11.835 9.93628 11.9163 9.85481L19.6358 2.13611C20.1239 1.64734 20.1233 0.855442 19.6346 0.367358C19.1458 -0.120723 18.3539 -0.120163 17.8658 0.368609L10.1475 8.08361C10.0662 8.16507 9.93432 8.16524 9.85286 8.08398L2.13415 0.368609C1.64607 -0.119703 0.854542 -0.11989 0.366234 0.368192C-0.122078 0.856274 -0.122264 1.6478 0.365817 2.13611L8.08332 9.85444C8.16478 9.9357 8.16494 10.0676 8.08369 10.1491L0.365817 17.8686C-0.122264 18.3569 -0.122078 19.1484 0.366234 19.6365C0.854546 20.1246 1.64607 20.1244 2.13415 19.6361L9.85248 11.9169C9.93374 11.8355 10.0656 11.8353 10.1471 11.9166L17.8658 19.6361C18.3539 20.1244 19.1454 20.1246 19.6337 19.6365C20.122 19.1484 20.1222 18.3569 19.6341 17.8686L11.9166 10.1494Z" fill="#73798C"/>
</svg>
