<svg width="12" height="20" viewBox="0 0 12 20" fill="none" xmlns="http://www.w3.org/2000/svg">
<path d="M9.89789e-06 9.97636C-0.000647772 9.42496 0.226251 8.9 0.622721 8.53559L9.52604 0.36012C10.1499 -0.186265 11.08 -0.101335 11.6035 0.549816C12.1098 1.17964 12.0524 2.11363 11.4732 2.67085L3.68762 9.81969C3.60473 9.89553 3.59643 10.0271 3.66909 10.1137C3.67486 10.1205 3.68105 10.127 3.68762 10.133L11.4732 17.2819C12.0971 17.8282 12.1785 18.799 11.655 19.4502C11.1315 20.1013 10.2014 20.1863 9.57756 19.6399C9.56003 19.6245 9.54286 19.6088 9.52604 19.5926L0.625915 11.4196C0.228482 11.0546 0.000512865 10.5289 9.89789e-06 9.97636Z" fill="#73798C"/>
</svg>
