<svg width="24" height="24" viewBox="0 0 24 24" fill="none" xmlns="http://www.w3.org/2000/svg">
<path d="M22 19.2222C22 20.7567 20.7567 22 19.2222 22H4.77778C3.24389 22 2 20.7567 2 19.2222V4.77778C2 3.24333 3.24389 2 4.77778 2H19.2222C20.7567 2 22 3.24333 22 4.77778V19.2222Z" fill="white"/>
<path d="M17.6313 12.72H15.6667V20H12.75V12.72H11V10.48H12.75V9.1304C12.7512 7.16592 13.6011 6 16.012 6H18V8.24H16.6659C15.7273 8.24 15.6667 8.576 15.6667 9.20488V10.48H18L17.6313 12.72Z" fill="#3B5998"/>
</svg>
