<svg width="156" height="141" viewBox="0 0 156 141" fill="none" xmlns="http://www.w3.org/2000/svg">
<g clip-path="url(#clip0)">
<path d="M42.725 2.09557C42.7314 1.85359 43.0308 1.52253 43.1709 1.71997L42.9096 2.43948L42.725 2.09557Z" fill="white"/>
<path d="M44.7182 1.80947C44.7563 2.19791 44.6415 2.87287 44.1447 3.34398C44.3104 2.57351 44.0621 2.80907 44.3743 1.99406C44.2342 1.79663 43.8903 1.98122 43.7884 2.17223C43.7948 1.93026 43.4509 2.11485 43.5592 1.68186C44.1006 1.35722 44.4826 1.56108 44.5143 2.19149C44.6608 2.14695 44.6672 1.90498 44.7182 1.80947Z" fill="white"/>
<path d="M73.3239 24.3126C73.2283 24.2616 73.2793 24.1661 73.3303 24.0706C73.2793 24.1661 73.3239 24.3126 73.3239 24.3126Z" fill="white"/>
<path d="M63.1183 14.6954L63.5513 14.8037C63.3538 14.9438 63.3093 14.7973 63.1183 14.6954Z" fill="white"/>
<path d="M46.233 4.94931C46.1375 4.89835 46.1885 4.80284 46.1439 4.65637C46.2395 4.70734 46.1885 4.80284 46.284 4.85381L46.233 4.94931Z" fill="white"/>
<path d="M58.8784 10.2245L58.7829 10.1735C58.8338 10.078 58.8848 9.98253 58.9358 9.88703L58.8784 10.2245Z" fill="white"/>
<path d="M55.2305 7.17315C55.326 7.22411 54.9247 7.74618 54.8228 7.9372C54.9247 7.74618 54.9311 7.50421 54.9311 7.50421C54.9821 7.4087 55.0331 7.3132 55.2305 7.17315Z" fill="white"/>
<path d="M48.5452 3.60576L48.5007 3.45929C48.5007 3.45929 48.5007 3.45929 48.5452 3.60576Z" fill="white"/>
<path d="M61.4378 12.3261C61.4888 12.2306 61.5843 12.2815 61.6353 12.186C61.5843 12.2815 61.5843 12.2815 61.4378 12.3261Z" fill="white"/>
<path d="M109.004 136.113C109.151 136.069 109.297 136.024 109.393 136.075L109.004 136.113Z" fill="white"/>
<path d="M78.8814 28.3842C78.8354 28.2329 78.8814 28.3842 78.8814 28.3842V28.3842Z" fill="white"/>
<path d="M99.557 63.2191C98.933 63.0088 99.1938 64.1296 98.3788 63.8174C98.5253 63.7729 98.9394 62.7669 99.557 63.2191Z" fill="white"/>
<path d="M84.8594 36.7261C84.7129 36.7706 84.7129 36.7706 84.5664 36.8152C84.5664 36.8152 84.6174 36.7197 84.8594 36.7261Z" fill="white"/>
<path d="M86.3104 40.4454C86.406 40.4964 86.5015 40.5474 86.4505 40.6429C86.4505 40.6429 86.4505 40.6429 86.355 40.5919C86.5015 40.5474 86.406 40.4964 86.3104 40.4454Z" fill="white"/>
<path d="M88.5449 43.8462C88.5449 43.8462 88.4494 43.7952 88.3985 43.8907L88.3539 43.7443L88.5449 43.8462Z" fill="white"/>
<path d="M106.709 118.57C106.9 118.672 107.142 118.678 107.237 118.729C106.849 118.767 106.69 119.296 106.709 118.57Z" fill="white"/>
<path d="M46.4816 4.71319C46.4307 4.8087 46.3797 4.90421 46.4243 5.05068L46.3287 4.99971C46.3352 4.75774 46.3861 4.66223 46.4816 4.71319Z" fill="white"/>
<path d="M82.3623 43.2462L82.7379 43.692C82.6424 43.641 82.5024 43.4436 82.3623 43.2462Z" fill="white"/>
<path d="M83.8068 45.3674C84.0488 45.3738 84.1952 45.3292 84.3862 45.4312C84.3353 45.5267 84.3353 45.5267 84.2843 45.6222L83.8068 45.3674Z" fill="white"/>
<path d="M105.868 122.906C105.836 122.276 106.651 122.588 107.09 122.454C107.352 121.735 106.517 122.148 106.04 121.894C106.295 121.416 106.982 121.047 106.893 120.754C106.798 120.703 106.702 120.652 106.556 120.697C107.199 120.181 106.543 119.34 107.333 118.78C107.238 118.729 107.238 118.729 107.142 118.678C107.575 118.786 107.963 118.748 108.205 118.755C108.212 118.513 108.702 118.284 108.174 118.124C108.218 118.271 107.976 118.264 107.779 118.404L107.932 118.118C107.212 117.857 107.728 118.5 107.097 118.532C107.308 117.908 107.906 117.245 107.722 116.902C106.996 116.882 107.55 117.914 106.837 117.411L107.11 118.048C105.913 117.532 107.244 118.487 105.9 118.016C105.633 117.137 106.168 117.054 105.996 116.226C106.34 116.042 106.576 116.29 106.971 116.01C107.633 114.768 105.105 115.137 105.952 114.239C106.443 114.01 107.366 113.89 106.85 113.246L106.067 113.565C105.895 112.737 107.245 112.966 106.589 112.126C106.246 112.31 106.379 112.75 106.284 112.699C105.571 112.195 106.73 112.323 106.742 111.839L106.016 111.82C105.991 110.947 106.552 109.897 106.577 108.929C106.38 109.069 106.183 109.209 105.947 108.961C106.221 107.757 105.534 106.286 104.98 105.254L105.674 104.643C105.63 104.497 105.388 104.49 105.19 104.63C104.91 104.235 105.579 104.592 105.827 104.357C105.833 104.115 105.4 104.006 105.248 104.293C105.706 103.433 106.089 101.797 105.236 101.096L105.134 101.287C104.764 100.599 106.274 100.3 105.656 99.8482L105.554 100.039C105.058 98.6701 105.345 96.9827 104.16 95.9827C104.995 95.5689 103.518 94.658 104.689 94.3017C103.932 93.652 103.683 93.8876 103.034 92.8049C102.945 92.512 103.728 92.1937 103.837 91.7608L103.155 91.888L103.754 91.2259L102.933 91.1556L103.041 90.7226C103.085 90.8691 103.423 90.9265 103.569 90.882C103.78 90.258 102.78 89.6019 102.487 89.6909L102.768 88.2455C102.475 88.3346 102.468 88.5766 102.366 88.7676C102.825 87.908 101.64 88.7483 102.144 88.0352C102.335 88.1372 102.488 87.8507 102.634 87.8061C102.156 87.5513 102.029 86.8699 101.998 86.2395L101.603 86.5196C101.24 85.5898 101.221 84.4755 100.96 83.3547C101.291 83.654 102.024 83.4313 101.986 83.0429L101.209 83.1191C101.603 82.839 101.54 83.4185 101.992 82.8009C101.807 82.457 101.17 82.7307 101.018 83.0172L101.081 82.4377C100.839 82.4313 100.738 82.6223 100.54 82.7624C100.935 82.4823 99.636 82.1572 100.279 81.6416L100.037 81.6352C99.7255 80.6099 99.7893 80.0304 99.522 79.1516C100.108 78.9735 99.9233 78.6296 100.274 78.203C99.8535 77.6107 99.1914 77.012 98.9686 76.2796C99.0834 75.6047 99.3635 75.9995 99.7138 75.573C99.1789 75.6556 98.9562 74.9233 98.7014 75.4008C98.4851 74.4265 98.345 74.2291 98.4281 72.9237C98.6701 72.9301 98.8101 73.1276 99.0076 72.9875C99.014 72.7455 98.632 72.5417 98.4345 72.6817L98.3836 72.7772C98.766 71.1408 95.7351 70.3824 96.4995 68.9498L96.4486 69.0453L96.6271 67.7909C96.347 67.396 96.3723 68.2684 95.8948 68.0136C96.3218 66.5236 95.1183 66.2496 95.2459 65.0906C93.4566 64.9947 94.2977 62.4988 92.8587 61.9763L93.2471 61.9382C93.451 61.5561 92.8651 61.7343 92.7251 61.5369C93.018 61.4478 93.158 61.6452 93.26 61.4542C92.6428 59.1617 90.7519 57.4165 89.3005 55.5377C88.8358 54.7989 90.8864 54.1753 89.4474 53.6529L88.9951 54.2704C88.9 52.3792 87.3338 51.1753 87.0413 49.4241C86.9393 49.6151 86.7929 49.6597 86.8374 49.8062C86.258 49.7424 86.0926 48.6725 86.4365 48.4879C86.2965 48.2905 86.0926 48.6725 85.7551 48.6151C85.3222 48.5068 85.8827 47.4562 85.2969 47.6344C85.1504 47.6789 85.1949 47.8254 85.1949 47.8254C85.2523 47.4879 84.5902 46.8892 85.2206 46.8575C84.6986 46.4562 84.8643 45.6858 84.2403 45.4755C84.597 44.807 83.3872 44.7749 84.0814 44.1637C83.2917 44.7239 82.7888 43.5967 82.9481 43.0682C82.7953 43.3547 82.5152 42.9599 82.2158 43.2909C81.9357 42.8961 81.8976 42.5076 82.388 42.2785C80.9361 42.24 82.1974 40.3363 80.7327 40.7817C80.3827 39.368 79.9309 38.1453 79.3326 36.9671C78.6384 37.5782 80.0774 38.1007 79.1412 38.7054C78.7848 37.5337 79.1035 36.4767 78.1548 35.7251C77.8683 35.5722 77.951 36.1071 77.849 36.2981C77.4927 35.1264 76.4421 34.5658 76.1813 33.445C76.1303 33.5405 76.0794 33.636 76.1239 33.7825C75.9839 33.5851 75.6973 33.4322 76.0412 33.2476L76.0348 33.4896C76.7162 33.3624 76.5573 32.0506 76.8057 31.815C76.0031 32.8591 75.9016 31.2099 74.9907 32.687C74.9461 32.5405 75.0035 32.203 75.2965 32.114C75.1055 32.012 74.959 32.0566 74.7551 32.4386C74.5324 31.7063 74.9718 31.5726 74.5962 31.1268C74.3988 31.2669 74.4433 31.4133 74.3414 31.6043C74.5007 31.0758 74.5645 30.4964 74.087 30.2416C74.036 30.3371 73.8896 30.3816 73.9341 30.5281C73.3739 29.7384 73.648 28.5349 72.6929 28.0253C72.2343 28.8848 72.2599 27.9169 71.6167 28.4326L71.4385 27.8467L71.8779 27.7131C71.5469 27.4137 71.7126 26.6433 71.1841 26.484L71.1713 26.9679L70.6111 26.1782L71.4325 26.2484C71.4008 25.618 72.2732 25.5927 71.6046 25.236C71.6492 25.3824 71.3246 24.8411 70.7387 25.0193C70.7961 24.6818 70.7579 24.2933 70.3249 24.185C70.032 24.2741 69.7262 24.8471 69.5798 24.8917C69.9365 24.2231 68.8795 23.9045 69.2363 23.236C69.1343 23.427 68.835 23.758 68.835 23.758L69.0898 23.2805C68.7523 23.2231 68.7014 23.3186 68.453 23.5542C67.9309 23.1529 69.3382 23.045 68.4277 22.6818C68.3767 22.7773 68.3767 22.7773 68.4213 22.9238C67.6572 22.5161 67.5874 21.4972 66.7724 21.185C66.0336 21.6497 67.0461 21.8218 66.4092 22.0955C66.0336 21.6497 65.8554 21.0638 65.6263 20.5734C65.3017 20.0321 65.0725 19.5418 64.595 19.2869L64.786 19.3889C65.5376 18.4402 63.7736 19.2167 63.7928 18.4908C63.8374 18.6373 63.4871 19.0638 63.538 18.9683C62.8695 18.6116 62.6022 17.7328 62.0485 16.7011L61.9911 17.0385C61.5581 16.9302 61.087 16.4334 60.6095 16.1786C60.6668 15.8411 60.4758 15.7392 60.8707 15.4591C58.6355 15.7388 59.3366 13.0454 57.4899 13.2869C57.5854 13.3379 57.6235 13.7264 57.528 13.6754L56.9233 12.7392C57.3181 12.4591 57.2162 12.6501 57.7066 12.421C57.7639 12.0835 57.7258 11.6951 57.5348 11.5931C57.713 12.179 56.9871 12.1597 56.6941 12.2488C56.8406 12.2043 56.847 11.9623 56.9935 11.9178C55.9682 12.2296 57.5477 11.1092 56.5798 11.0835L56.4778 11.2745C56.3887 10.9816 56.3506 10.5931 56.0641 10.4402C55.6183 10.8158 56.1022 10.8287 55.8984 11.2107C55.5673 10.9113 55.8859 9.85437 55.2046 9.98157C55.1981 10.2235 55.4847 10.3764 55.4782 10.6184C54.6949 10.9366 54.7969 10.7456 54.5103 10.5927L53.7399 10.427L53.9818 10.4334C54.4598 8.84795 53.2306 9.54177 53.2627 8.3319C53.2306 9.54177 53.0079 8.80943 52.7022 9.38246C52.4602 9.37604 52.0717 9.41416 52.0653 9.65613C52.1291 9.07668 51.3394 9.63687 51.4606 8.71994C51.2631 8.85999 51.1741 8.56705 50.9192 9.04458C50.6391 8.64971 51.2631 8.85999 51.416 8.57347C51.3462 7.55461 49.6331 8.23559 49.3787 6.87283C48.965 6.03856 49.1753 5.41457 48.7106 4.6758C48.2712 4.80943 48.4493 5.39531 48.4493 5.39531C47.9654 5.38246 47.6789 5.22958 47.4497 4.73921C47.4433 4.98118 47.2969 5.02573 47.0039 5.11481C46.7684 4.86642 47.2651 4.39531 46.6857 4.3315C46.5838 4.52252 46.4754 4.9555 46.469 5.19748C46.2844 4.85357 46.1062 4.2677 45.9217 3.9238C45.6733 4.15936 45.8578 4.50325 45.8005 4.84073C45.5204 4.44587 45.0493 3.94908 45.2595 3.32508L45.648 3.28696C45.457 3.18504 45.2977 3.71353 45.3422 3.86C45.3739 4.49042 45.8707 4.01931 46.0681 3.87926L45.8835 3.53536C46.8261 2.68865 46.7812 4.38247 47.2587 4.63729L47.6219 3.72677L47.7427 4.65012C47.9401 4.51007 48.3859 4.13447 48.1504 3.88608C48.7363 3.7079 48.284 4.32548 48.8699 4.14732C48.9209 4.05181 48.9209 4.05181 48.9209 4.05181L49.0545 4.49121C49.0609 4.24924 49.4558 3.96914 49.2138 3.96272C50.0862 3.93744 49.8121 5.14089 50.4489 4.86722L50.4999 4.77171C51.1556 5.6124 50.1941 5.34474 50.3594 6.41456L51.7415 5.43423L51.4357 6.00726C51.5312 6.05823 51.7222 6.16015 51.8751 5.87363C51.9068 6.50405 51.6267 6.10919 51.5184 6.54217C52.2507 6.31946 52.4096 7.63126 53.2058 6.82909C53.0464 7.35758 52.5753 6.86079 52.7535 7.44667C53.5497 6.6445 53.0782 7.988 53.7595 7.86079C54.0653 7.28775 53.4349 7.31946 54.1163 7.19225C53.7531 8.10276 55.0268 7.55541 55.1604 7.99482C54.7082 8.61239 55.6251 8.73358 55.9943 9.42138C56.1472 9.13486 57.2423 9.84192 57.8663 10.0522L57.9172 9.95669C57.5605 10.6252 58.1335 10.931 58.3627 11.4214C58.662 11.0903 58.6684 10.8483 58.6303 10.4599L58.9614 10.7593C58.8085 11.0458 58.853 11.1922 59.0886 11.4406L59.3944 10.8676C59.8209 11.2179 59.7952 12.1858 60.7122 12.307C60.3619 12.7336 59.2856 13.1409 59.6038 13.9242C59.8522 13.6886 60.1516 13.3576 60.158 13.1156C60.2535 13.1666 60.1961 13.504 60.3426 13.4595L60.4064 12.88C60.4192 12.3961 59.9734 12.7717 60.1644 12.8736C60.4638 12.5426 60.4574 12.7845 60.7058 12.549C60.6612 12.4025 60.4638 12.5426 60.4702 12.3006C60.7567 12.4535 61.2407 12.4663 61.5336 12.3772C61.3362 12.5173 61.1833 12.8038 61.3233 13.0012C61.7499 13.3515 61.8137 12.7721 62.2021 12.734C62.1448 13.0715 62.6287 13.0843 62.1319 13.5554C62.3229 13.6573 62.4249 13.4663 62.6223 13.3263C62.6604 13.7147 63.5645 14.3198 62.9277 14.5935L62.8322 14.5426C63.093 15.6633 64.5448 15.7019 65.105 16.4916L65.3025 16.3515C65.5761 16.9884 66.1492 17.2942 66.1809 17.9246C66.3719 18.0265 66.7603 17.9884 66.9132 17.7019C67.1424 18.1922 66.9449 18.3323 67.7154 18.498C67.6837 17.8676 68.0593 18.3134 67.6327 17.9631C68.2058 18.2689 68.5497 18.0843 68.5749 18.9567C68.8298 18.4791 69.4028 18.7849 69.4919 19.0779L68.9124 19.0141C69.097 19.358 69.288 19.4599 69.5745 19.6128L70.0268 18.9952C71.0773 19.5558 70.0962 21.8543 71.7519 21.5108C71.5926 22.0393 71.0324 21.2496 70.8221 21.8736C71.2487 22.2239 72.3695 21.9631 72.5605 22.065C73.28 22.3263 72.2864 23.2685 72.955 23.6252C72.662 23.7143 72.0697 24.1344 72.3434 24.7713C72.77 25.1216 73.5597 24.5614 73.5216 24.173C73.477 24.0265 73.3306 24.071 73.2796 24.1665C73.2351 24.0201 73.146 23.7271 73.5344 23.689L73.4325 23.88C73.77 23.9374 74.3366 24.4852 74.4449 24.0522C74.5786 24.4916 74.2411 24.4342 73.9546 24.2813C74.6741 24.5425 74.7567 25.0775 75.3743 25.5297C75.2278 25.5742 74.9349 25.6633 75.0304 25.7143C75.9345 26.3194 74.9156 26.3892 75.3358 26.9815C75.9152 27.0453 75.9855 26.2239 76.1572 27.0518C76.6857 27.2111 76.7495 26.6316 76.7559 26.3896C76.7812 27.262 77.7046 27.1413 78.0866 27.3451L78.0485 26.9567C78.042 27.1986 78.2331 27.3006 78.2776 27.447L77.7872 27.6762C77.9782 27.7781 78.1183 27.9755 78.2202 27.7845C78.1119 28.2175 77.4815 28.2492 77.4177 28.8286C77.7551 28.886 77.7359 29.612 78.2772 29.2873C77.5641 28.7841 78.8695 28.8672 78.4494 28.2749C78.4939 28.4213 78.5384 28.5678 78.7294 28.6697C78.8759 28.6252 78.7804 28.5742 78.8314 28.4787C79.7929 28.7464 78.4237 29.2428 79.0348 29.937C79.2387 29.555 79.6717 29.6633 79.7162 29.8098C79.5316 29.4659 79.2258 30.0389 79.1684 30.3764C79.7924 30.5867 79.3466 30.9623 79.5822 31.2107L79.2957 31.0578C79.0918 31.4398 79.2828 31.5417 79.4164 31.9811C79.6139 31.8411 79.3783 31.5927 79.5248 31.5481C79.2636 32.2677 80.6773 31.9177 80.658 32.6436C80.9955 32.701 81.2503 32.2235 81.5878 32.2809C81.6131 33.1533 82.4538 32.4976 82.53 33.2745C81.9441 33.4526 82.1416 33.3126 81.9758 34.0831L81.6195 32.9113L81.3964 34.0193C81.1608 33.7709 81.2246 33.1914 81.0336 33.0895C80.8743 33.618 81.0208 33.5734 80.4859 33.6561C81.4092 33.5353 80.7022 34.6304 81.3771 34.7452L82.4152 33.9494C83.3258 34.3126 82.7142 35.4587 83.6628 36.2103L83.2808 36.0064C82.9305 36.433 83.6055 36.5477 83.6436 36.9362C83.9429 36.6051 84.2295 36.758 84.5224 36.6689C84.274 36.9045 85.038 37.3122 84.3948 37.8278L85.1207 37.8471C85.7828 38.4458 84.6937 39.3371 85.2094 39.9803C85.4642 39.5028 85.8972 39.6111 85.8655 38.9807C86.0055 39.1781 86.2411 39.4265 85.9481 39.5156C86.1901 39.5221 85.9225 40.4835 86.3109 40.4454C86.209 40.6364 85.8141 40.9165 86.0497 41.1649C86.1961 41.1204 86.2471 41.0249 86.2471 41.0249C86.0497 41.1649 86.3298 41.5598 85.6993 41.5915C87.2977 41.5854 86.9534 43.6103 88.3097 43.5979C88.4879 44.1838 88.7106 44.9161 88.9907 45.311C89.0416 45.2155 89.1881 45.1709 89.0926 45.12C89.8567 45.5277 88.29 46.1641 89.1496 46.6228C89.971 46.693 89.2134 46.0433 89.6464 46.1517C90.971 45.5088 90.0091 47.0814 91.0216 47.2536L90.977 47.1071C91.652 47.2219 91.0914 48.2724 91.5116 48.8647C91.5116 48.8647 91.5625 48.7692 91.709 48.7247C91.3013 49.4887 91.5176 50.4631 91.6448 51.1444C91.9951 50.7179 91.7531 50.7114 92.339 50.5333C92.4281 50.8262 91.5557 50.8515 91.6829 51.5329C92.0204 51.5903 92.4979 51.8451 92.9883 51.6159L92.7592 51.1256C93.536 51.0493 93.1283 51.8134 93.3639 52.0618L93.6123 51.8262C93.9305 52.6095 93.1917 53.0742 93.7519 53.8639L93.51 53.8575C93.0513 54.7171 94.134 54.0678 93.7772 54.7363L94.656 54.4691C94.6941 54.8575 94.471 55.9655 94.5537 56.5004C95.0059 55.8828 94.9297 55.1059 95.089 54.5774C95.2736 54.9213 95.4963 55.6537 95.197 55.9847C95.1524 55.8382 95.3053 55.5517 95.2098 55.5008C94.8531 56.1693 94.7383 56.8443 95.0629 57.3856C96.4895 56.5517 96.2852 58.774 97.5461 58.7106C97.463 60.016 98.7491 60.825 99.2455 62.1942C97.8892 62.2066 99.3791 62.6336 98.1564 63.0854C98.2455 63.3784 98.2901 63.5248 98.3856 63.5758L99.5316 64.1874C99.9646 64.2957 99.64 63.7544 99.9329 63.6653C100.353 64.2576 100.608 63.78 101.085 64.0349C100.646 64.1685 100.589 64.506 100.869 64.9008L100.054 64.5886C99.7796 65.7921 101.448 64.9646 101.174 66.1681L101.429 65.6906C101.365 66.27 102.154 67.5501 101.358 68.3523C101.6 68.3587 101.938 68.4161 101.944 68.1741C102.593 69.2568 101.816 71.1733 102.816 71.8294L103.064 71.5938C103.058 71.8358 102.612 72.2114 103.045 72.3198C103.191 72.2752 103.293 72.0842 103.338 72.2307C103.236 72.4217 103.026 73.0457 103.312 73.1986L103.611 72.8675C104.407 73.9056 103.363 74.9434 103.433 75.9622C104.311 75.695 104.872 76.4847 105.247 76.9305L105.394 76.886C105.89 78.2552 105.374 79.4522 105.386 80.8085C106.583 81.3246 106.481 83.3559 107.468 84.4959C107.277 84.394 106.736 84.7186 106.729 84.9606C106.965 85.209 106.315 85.9666 107.098 85.6484L107.054 85.5019C107.926 85.4767 107.907 86.2026 108.04 86.642L106.964 87.0493C108.83 87.9221 107.116 90.4433 108.753 90.8258C108.549 91.2078 108.587 91.5962 108.434 91.8828L109.02 91.7046C109.338 92.4879 109.472 92.9273 109.637 93.9971L110.032 93.717C110.21 94.3029 108.453 94.8374 108.535 95.3723L109.115 95.4361C109.28 96.5059 110.273 97.404 109.662 98.5501C109.808 98.5055 110.101 98.4165 110.057 98.27C110.19 98.7094 110.929 100.085 109.719 100.053C110.496 99.9766 109.98 101.174 109.674 101.747L110.26 101.569C109.565 102.18 109.323 102.173 109.209 102.848C109.253 102.995 109.693 102.861 109.502 102.759C109.877 103.205 109.005 103.23 109.425 103.823L109.82 103.542C109.902 104.077 109.66 104.071 109.361 104.402C109.157 104.784 109.673 105.427 110.157 105.44C109.864 105.529 109.418 105.905 109.654 106.153C109.896 106.16 109.947 106.064 109.998 105.969C110.507 106.854 109.475 107.408 110.093 107.86C110.335 107.866 110.43 107.917 110.43 107.917C110.303 107.236 110.271 106.605 110.22 106.701C110.755 106.618 110.933 107.204 111.628 106.593C111.226 107.115 110.379 108.013 110.704 108.554C110.799 108.605 110.799 108.605 110.895 108.656L110.946 108.561C110.99 108.707 111.035 108.853 110.837 108.993C110.978 109.191 111.073 109.242 111.067 109.484C111.551 109.497 111.34 110.121 111.429 110.414C110.799 110.445 110.984 110.789 110.41 110.483C110.506 110.534 110.461 110.388 110.512 110.292L110.563 110.197C110.57 109.955 110.576 109.713 110.583 109.471C110.334 109.707 110.086 109.942 110.417 110.241C110.073 110.426 109.634 110.56 109.436 110.7C110.347 111.063 110.862 111.706 111.442 111.77C111.174 112.731 111.339 113.801 110.257 114.451C110.104 114.737 110.588 114.75 110.779 114.852C110.881 114.661 110.836 114.514 110.983 114.47C110.728 114.947 110.944 115.922 110.212 116.144C110.632 116.737 110.9 115.775 110.829 116.597L111.027 116.457C112.389 118.042 109.065 119.213 110.758 121.099C110.714 120.952 110.618 120.901 110.523 120.85C111.337 123.003 109.872 125.288 110.98 127.352C111.158 127.938 110.719 128.071 110.324 128.351L110.999 128.466L110.158 129.122C109.553 130.026 111.762 130.714 110.571 131.796L110.138 131.688C110.177 132.077 109.864 132.892 110.348 132.904C110.202 132.949 109.909 133.038 110.1 133.14L110.437 133.197L109.781 134.197C109.953 135.025 111.138 134.184 111.157 135.299C110.953 135.681 109.965 136.381 109.825 136.184C109.781 136.037 109.692 135.744 109.354 135.687L109.15 136.069C108.183 136.043 107.113 136.209 106.508 135.272L107.202 134.661L106.725 134.406L106.661 134.986C106.234 134.636 106.674 134.502 106.922 134.266C106.68 134.26 106.54 134.063 106.349 133.961L107.381 133.407C106.948 133.298 106.553 133.579 106.368 133.235C106.859 133.006 107.279 133.598 107.534 133.12C107.107 132.77 106.719 132.808 107.114 132.528C106.872 132.522 106.725 132.566 106.579 132.611C106.878 132.28 106.795 131.745 107.33 131.662C106.757 131.356 107.553 130.554 106.585 130.528C106.878 130.439 107.375 129.968 107.382 129.726C106.254 130.229 107.363 128.612 106.102 128.675C107.127 128.363 106.624 127.236 107.223 126.574C107.077 126.619 106.93 126.663 107.026 126.714C106.988 126.326 106.701 126.173 106.465 125.924C107.338 125.899 107.548 125.275 108.089 124.951C107.23 124.492 107.064 125.262 106.294 125.097C107.02 125.116 106.994 124.243 107.523 124.403C107.001 124.002 107.338 124.059 106.568 123.893C107.587 123.823 106.772 123.511 107.408 123.237C106.842 122.69 106.396 123.065 106.702 122.492C106.269 122.384 105.868 122.906 105.868 122.906ZM106.966 108.891C106.915 108.986 106.959 109.133 106.959 109.133C106.959 109.133 106.915 108.986 106.966 108.891ZM106.852 107.725C106.896 107.872 106.941 108.018 106.934 108.26C107.176 108.267 107.323 108.222 107.374 108.127C107.132 108.12 107.043 107.827 106.852 107.725ZM111.302 109.732C111.404 109.541 111.213 109.439 111.067 109.484C111.016 109.579 111.06 109.726 111.009 109.821C111.009 109.821 111.009 109.821 110.958 109.917C111.105 109.872 111.251 109.828 111.302 109.732Z" fill="white"/>
<path d="M110.563 110.197C110.563 110.197 110.512 110.292 110.563 110.197C110.417 110.241 110.417 110.241 110.321 110.19C110.372 110.095 110.467 110.146 110.563 110.197Z" fill="white"/>
<path d="M103.06 91.837L103.206 91.7925L103.155 91.888L103.06 91.837Z" fill="white"/>
<path d="M56.605 11.9556L56.4585 12.0001C56.4585 12.0001 56.4585 12.0001 56.605 11.9556Z" fill="white"/>
<path d="M54.3252 10.249L53.8922 10.1407C54.0832 10.2426 54.1787 10.2936 54.3252 10.249Z" fill="white"/>
<path d="M76.3209 33.6423C76.3209 33.6423 76.2699 33.7378 76.3209 33.6423C76.41 33.9353 76.3145 33.8843 76.3209 33.6423Z" fill="white"/>
<path d="M70.7895 24.9235C70.834 25.0699 70.7321 25.2609 70.7766 25.4074C70.5856 25.3055 70.5411 25.159 70.7895 24.9235Z" fill="white"/>
<path d="M71.1077 25.7068C70.9167 25.6049 70.8212 25.5539 70.7767 25.4075C70.8722 25.4584 71.0632 25.5604 71.1077 25.7068Z" fill="white"/>
<path d="M44.661 3.98667C44.6165 3.8402 44.6165 3.8402 44.661 3.98667V3.98667Z" fill="white"/>
<path d="M44.6161 3.84067C44.5715 3.6942 44.667 3.74517 44.6161 3.84067V3.84067Z" fill="white"/>
<path d="M44.4823 3.401L44.5714 3.69394C44.4759 3.64297 44.3804 3.59201 44.4823 3.401Z" fill="white"/>
<path d="M47.8059 5.91085C47.6149 5.80893 47.1245 6.03806 46.9399 5.69416L47.0418 5.50315C46.9844 5.84063 47.9142 5.47787 47.8059 5.91085Z" fill="white"/>
<path d="M52.3586 5.88616L51.6901 5.52942C51.983 5.44034 52.3269 5.25575 51.9959 4.95639C53.2057 4.98849 51.55 5.33199 52.3586 5.88616Z" fill="white"/>
<path d="M54.4596 7.00764C54.2751 6.66374 54.708 6.77208 54.759 6.67658C54.7526 6.91855 54.8481 6.96951 54.4596 7.00764Z" fill="white"/>
<path d="M67.0532 17.8993L67.4036 17.4728C67.5436 17.6702 67.2061 17.6128 67.0532 17.8993Z" fill="white"/>
<path d="M67.2304 22.1659L66.7465 22.1531L67.0968 21.7265L67.2304 22.1659Z" fill="white"/>
<path d="M71.3378 20.6765L71.2933 20.53L71.5224 21.0204L71.3378 20.6765Z" fill="white"/>
<path d="M88.6154 43.0246L87.9785 43.2983C87.985 43.0563 88.6282 42.5406 88.6154 43.0246Z" fill="white"/>
<path d="M94.0448 53.7746C94.4332 53.7365 94.8152 53.9403 94.5159 54.2714C94.3758 54.074 94.0383 54.0166 94.0448 53.7746Z" fill="white"/>
<path d="M107.678 87.5523L107.83 87.2658L107.818 87.7497L107.678 87.5523Z" fill="white"/>
<path d="M100.542 128.286L102.275 126.879L108.832 135.286L116.723 128.085L118.181 129.722L108.602 138.476L100.542 128.286Z" fill="white"/>
</g>
<defs>
<clipPath id="clip0">
<rect width="126.655" height="91.2566" fill="white" transform="matrix(-0.882251 -0.47078 -0.47078 0.882251 155.384 60.0029)"/>
</clipPath>
</defs>
</svg>
