<svg width="143" height="156" viewBox="0 0 143 156" fill="none" xmlns="http://www.w3.org/2000/svg">
<g clip-path="url(#clip0)">
<path d="M65.3544 0.979423C65.2217 0.777 64.793 0.652904 64.7777 0.894493L65.3783 1.36902L65.3544 0.979423Z" fill="white"/>
<path d="M63.5094 1.78464C63.6813 2.13505 64.1339 2.64872 64.8042 2.78808C64.258 2.21999 64.5932 2.28967 63.899 1.76074C63.9142 1.51916 64.3038 1.49526 64.491 1.6041C64.3582 1.40168 64.7478 1.37778 64.4279 1.06652C63.7967 1.07516 63.5791 1.44948 63.8837 2.00231C63.7357 2.04147 63.603 1.83906 63.5094 1.78464Z" fill="white"/>
<path d="M51.0172 35.9702C51.0717 35.8766 50.9781 35.8222 50.8845 35.7677C50.9781 35.8222 51.0172 35.9702 51.0172 35.9702Z" fill="white"/>
<path d="M54.6384 22.4228L54.3271 22.7427C54.5687 22.7579 54.5296 22.6099 54.6384 22.4228Z" fill="white"/>
<path d="M63.8727 5.2519C63.9271 5.15832 63.8335 5.1039 63.7944 4.9559C63.74 5.04948 63.8335 5.1039 63.7791 5.19749L63.8727 5.2519Z" fill="white"/>
<path d="M55.8926 16.3898L55.947 16.2962C55.8534 16.2418 55.7598 16.1874 55.6662 16.133L55.8926 16.3898Z" fill="white"/>
<path d="M57.3899 11.8759C57.3355 11.9695 57.9514 12.2024 58.1385 12.3112C57.9514 12.2024 57.8186 12 57.8186 12C57.7251 11.9456 57.6315 11.8911 57.3899 11.8759Z" fill="white"/>
<path d="M61.199 5.32542L61.1599 5.17742C61.1599 5.17742 61.1599 5.17742 61.199 5.32542Z" fill="white"/>
<path d="M54.8212 19.5235C54.7276 19.4691 54.6732 19.5627 54.5796 19.5083C54.6732 19.5627 54.6732 19.5627 54.8212 19.5235Z" fill="white"/>
<path d="M79.4793 149.822C79.3313 149.861 79.1833 149.901 79.1289 149.994L79.4793 149.822Z" fill="white"/>
<path d="M48.4321 42.356C48.3917 42.2032 48.4321 42.356 48.4321 42.356V42.356Z" fill="white"/>
<path d="M49.1716 82.8583C49.5917 82.3513 49.9594 83.4417 50.4883 82.7474C50.3403 82.7866 49.459 82.1488 49.1716 82.8583Z" fill="white"/>
<path d="M47.7358 52.5952C47.8838 52.5561 47.8838 52.556 48.0318 52.5169C48.0318 52.5169 47.9383 52.4625 47.7358 52.5952Z" fill="white"/>
<path d="M48.458 56.5213C48.4035 56.6149 48.3491 56.7085 48.4427 56.7629C48.4427 56.7629 48.4427 56.7629 48.4971 56.6693C48.3491 56.7085 48.4035 56.6149 48.458 56.5213Z" fill="white"/>
<path d="M48.3467 60.5894C48.3467 60.5894 48.4011 60.4958 48.4947 60.5502L48.4555 60.4022L48.3467 60.5894Z" fill="white"/>
<path d="M72.2036 133.694C72.0947 133.882 71.8923 134.014 71.8379 134.108C72.1883 133.936 72.6018 134.302 72.2036 133.694Z" fill="white"/>
<path d="M63.5368 5.18181C63.6304 5.23623 63.724 5.29065 63.7632 5.43865L63.8176 5.34506C63.6848 5.14265 63.5913 5.08823 63.5368 5.18181Z" fill="white"/>
<path d="M53.2892 56.8265L53.2042 57.4033C53.2587 57.3097 53.2739 57.0681 53.2892 56.8265Z" fill="white"/>
<path d="M53.1765 59.3905C52.9741 59.5232 52.8261 59.5624 52.7173 59.7495C52.8109 59.8039 52.8109 59.8039 52.9044 59.8583L53.1765 59.3905Z" fill="white"/>
<path d="M75.2 136.94C74.8953 136.387 74.3664 137.081 73.9224 137.199C73.3218 136.724 74.2489 136.637 74.521 136.169C74.0531 135.897 73.274 135.945 73.1956 135.649C73.2501 135.555 73.3045 135.462 73.4525 135.423C72.6342 135.322 72.7496 134.262 71.7833 134.201C71.8377 134.108 71.8377 134.108 71.8921 134.014C71.5809 134.334 71.2305 134.506 71.0281 134.639C70.8953 134.436 70.3577 134.499 70.7234 134.086C70.7626 134.234 70.965 134.101 71.2066 134.116L70.9258 133.953C71.4003 133.353 71.3001 134.171 71.853 133.866C71.3459 133.446 70.4885 133.198 70.4646 132.808C71.0718 132.41 71.1435 133.579 71.4853 132.776L71.5875 133.461C72.3341 132.393 71.705 133.905 72.5996 132.798C72.3646 131.91 71.8662 132.121 71.5768 131.326C71.1873 131.35 71.1176 131.685 70.6344 131.655C69.4179 130.947 71.762 129.931 70.5693 129.613C70.0318 129.677 69.1829 130.059 69.2831 129.241L70.1167 129.1C69.8273 128.305 68.8 129.211 68.9154 128.151C69.305 128.127 69.4225 128.571 69.4769 128.477C69.8187 127.674 68.9002 128.392 68.6347 127.988L69.2419 127.589C68.8046 126.834 67.7752 126.235 67.2442 125.426C67.4858 125.441 67.7274 125.456 67.7971 125.121C66.931 124.242 66.7418 122.629 66.6701 121.46L65.7582 121.306C65.719 121.158 65.9214 121.025 66.163 121.04C66.1935 120.557 65.8126 121.212 65.4774 121.142C65.3447 120.94 65.656 120.62 65.9367 120.783C65.0945 120.294 63.9085 119.103 64.2655 118.058L64.4527 118.167C64.4049 117.388 62.964 117.928 63.2514 117.218L63.4385 117.327C63.1405 115.901 62.0089 114.617 62.4901 113.144C61.5629 113.231 62.34 111.679 61.1561 111.992C61.4587 111.041 61.7938 111.111 61.7765 109.849C61.6982 109.553 60.8647 109.694 60.5448 109.383L61.1912 109.133L60.3337 108.884L60.9954 108.393L60.6755 108.081C60.7146 108.229 60.4578 108.456 60.3098 108.495C59.8027 108.075 60.3078 106.991 60.6038 106.913L59.6049 105.831C59.9009 105.753 60.0336 105.955 60.2208 106.064C59.3786 105.574 60.8281 105.666 60.025 105.324C59.9162 105.511 59.6354 105.348 59.4874 105.387C59.7595 104.919 59.5093 104.273 59.2047 103.72L59.6878 103.75C59.5073 102.769 58.9372 101.811 58.5695 100.721C58.4454 101.149 57.7054 101.345 57.5335 100.995L58.2343 100.651C57.7512 100.62 58.1102 101.08 57.4007 100.792C57.3768 100.403 58.0624 100.301 58.3431 100.464L57.9841 100.005C58.1865 99.8718 58.3737 99.9807 58.6152 99.9959C58.1321 99.9654 59.0659 99.0057 58.2475 98.9055L58.45 98.7728C58.1758 97.7368 57.8168 97.2775 57.5818 96.3895C56.9898 96.5462 56.9659 96.1566 56.4436 95.9781C56.4894 95.2534 56.7376 94.3959 56.5418 93.6559C56.0891 93.1422 56.0586 93.6254 55.5363 93.4469C56.0347 93.2358 55.8389 92.4958 56.3068 92.7679C55.9783 91.8255 55.9935 91.5839 55.2363 90.5174C55.0338 90.6501 55.0186 90.8917 54.777 90.8765C54.6443 90.674 54.8619 90.2997 55.1035 90.315L55.1971 90.3694C54.0111 89.1788 56.1899 86.9395 54.7862 86.1232L54.8798 86.1776L54.0681 85.2047C54.0986 84.7216 54.536 85.4768 54.8081 85.0089C53.6612 83.9663 54.5406 83.1002 53.8225 82.1817C55.2938 81.1589 53.2656 79.4785 54.2146 78.2773L53.8642 78.4492C53.4899 78.2315 54.0819 78.0749 54.0971 77.8333C53.8011 77.9116 53.7859 78.1532 53.5987 78.0443C52.9177 75.7699 53.6079 73.2911 53.8541 70.9297C53.8607 70.057 51.7887 70.6052 52.7377 69.404L53.4472 69.6913C52.5333 68.0328 53.2321 66.1851 52.5598 64.5419C52.7469 64.6507 52.8949 64.6116 52.9341 64.7596C53.3933 64.4005 52.9712 63.4037 52.5816 63.4276C52.5969 63.186 52.9712 63.4037 53.228 63.1774C53.5393 62.8575 52.5099 62.2589 53.1019 62.1022C53.2499 62.0631 53.2891 62.2111 53.2891 62.2111C53.0628 61.9542 53.311 61.0967 52.7581 61.4014C52.9911 60.7855 52.4448 60.2174 52.8649 59.7103C52.2099 59.3294 53.222 58.6657 52.3101 58.5111C53.2764 58.5721 53.1111 57.349 52.6976 56.9833C52.9784 57.1466 53.0089 56.6634 53.4376 56.7875C53.4681 56.3043 53.2962 55.9539 52.7587 56.017C53.9732 55.2206 51.8992 54.2649 53.3792 53.8733C52.9331 52.4869 52.6743 51.2093 52.5634 49.8926C53.4753 50.0472 52.5263 51.2485 53.6406 51.2704C53.3273 50.0864 52.5003 49.355 52.9118 48.2168C53.0751 47.9361 53.2861 48.4345 53.4733 48.5433C53.16 47.3593 53.7586 46.33 53.3909 45.2396C53.4845 45.294 53.5781 45.3484 53.6172 45.4964C53.6325 45.2548 53.7957 44.9741 53.4062 44.998L53.5389 45.2004C52.8925 45.4506 52.3376 44.2514 52.0025 44.1817C53.2343 44.6476 52.4531 43.1915 54.0048 43.9686C53.9656 43.8206 53.7393 43.5638 53.4433 43.6421C53.5521 43.4549 53.7001 43.4158 54.0745 43.6335C53.8787 42.8935 53.4347 43.0109 53.5196 42.4342C53.7612 42.4495 53.8003 42.5975 53.9875 42.7063C53.574 42.3406 53.215 41.8814 53.4871 41.4135C53.5806 41.4679 53.7286 41.4287 53.7678 41.5767C53.8288 40.6104 52.9627 39.7311 53.5069 38.7953C54.3491 39.2851 53.8182 38.4754 54.6365 38.5756L54.4798 37.9836L54.0358 38.1011C54.1599 37.6723 53.6137 37.1042 53.9794 36.6908L54.2449 37.0956L54.3059 36.1293L53.6442 36.6211C53.3396 36.0682 52.5844 36.5056 52.9653 35.8506C53.0044 35.9986 52.9958 35.3674 53.5878 35.2108C53.3615 34.9539 53.1896 34.6035 53.5008 34.2836C53.7968 34.2053 54.3583 34.5318 54.5063 34.4927C53.8513 34.1117 54.5826 33.2848 53.9275 32.9038C54.1147 33.0127 54.5434 33.1368 54.5434 33.1368L54.0755 32.8647C54.3324 32.6384 54.426 32.6928 54.7611 32.7625C54.9941 32.1466 53.7404 32.795 54.3237 32.0072C54.4173 32.0616 54.4173 32.0616 54.4565 32.2096C54.8918 31.461 54.4153 30.5577 54.9442 29.8635C55.817 29.8701 55.0465 30.5491 55.732 30.4469C55.817 29.8701 55.6603 29.2781 55.5973 28.7406C55.5886 28.1094 55.5256 27.5718 55.7977 27.1039L55.6888 27.2911C54.5506 26.8796 56.4593 26.6121 56.0611 26.0049C56.1003 26.1529 56.6226 26.3314 56.529 26.277C56.9099 25.6219 56.675 24.7339 56.6033 23.5652L56.8296 23.822C57.1409 23.5021 57.2802 22.8318 57.5523 22.3639C57.326 22.1071 57.4348 21.9199 56.9517 21.8894C58.9997 20.9516 56.9868 19.0296 58.6844 18.2637C58.63 18.3573 58.8019 18.7077 58.8563 18.6141L58.8782 17.4998C58.3951 17.4693 58.5822 17.5782 58.0447 17.6412C57.8183 17.3844 57.6464 17.034 57.7553 16.8468C57.9119 17.4388 58.5192 17.0406 58.8152 16.9623C58.6672 17.0014 58.5344 16.799 58.3864 16.8382C59.4224 16.564 57.4898 16.442 58.2995 15.911L58.4866 16.0199C58.4083 15.7239 58.2364 15.3734 58.3997 15.0927C58.9764 15.1776 58.5716 15.4431 58.9459 15.6608C59.07 15.2321 58.243 14.5007 58.8894 14.2505C59.0222 14.4529 58.8589 14.7336 58.9917 14.9361C59.8252 14.7947 59.6381 14.6858 59.8013 14.4051L60.3694 13.8589L60.167 13.9916C58.9266 12.8946 60.3369 12.8382 59.6732 11.8261C60.3369 12.8382 60.1411 12.0982 60.7025 12.4247C60.905 12.2919 61.2554 12.12 61.3881 12.3225C61.0291 11.8632 61.9954 11.9242 61.41 11.2081C61.6516 11.2234 61.5733 10.9274 62.0412 11.1995C62.0717 10.7163 61.6516 11.2234 61.3708 11.0601C60.8943 10.1569 62.7094 9.83497 62.209 8.54215C62.122 7.615 61.615 7.1949 61.6216 6.32217C62.0656 6.20469 62.2222 6.79668 62.2222 6.79668C62.6271 6.5312 62.7903 6.25046 62.7273 5.71289C62.86 5.91531 63.008 5.87615 63.304 5.79783C63.3737 5.46267 62.7034 5.32331 63.1626 4.96425C63.3498 5.07309 63.6697 5.38435 63.8024 5.58677C63.7785 5.19719 63.6219 4.6052 63.598 4.21562C63.9331 4.2853 63.957 4.67487 64.1834 4.93171C64.2139 4.44855 64.3532 3.77824 63.8462 3.35814L63.4958 3.53004C63.6046 3.34289 64.0181 3.70857 64.0572 3.85656C64.3619 4.4094 63.6916 4.27004 63.45 4.25478L63.4261 3.8652C62.179 3.64091 63.1082 5.05783 62.8361 5.52574L62.0483 4.94238L62.4313 5.79121C62.1897 5.77595 61.613 5.69101 61.6826 5.35585C61.0906 5.51249 61.8001 5.79985 61.2081 5.9565C61.1145 5.90208 61.1145 5.90208 61.1145 5.90208L61.232 6.34606C61.0993 6.14365 60.6161 6.11313 60.8185 5.98039C60.0633 6.41777 60.9294 7.29712 60.2438 7.39934L60.1503 7.34492C60.0348 8.40481 60.7117 7.67143 61.1339 8.66826L59.4428 8.56146L60.0043 8.88797C59.9499 8.98155 59.841 9.16871 59.5603 9.00545C59.8649 9.55828 59.8954 9.07513 60.2153 9.38638C59.4754 9.58218 60.0302 10.7814 58.9312 10.518C59.3446 10.8837 59.484 10.2133 59.6406 10.8053C58.5416 10.5419 59.6493 11.4365 59.0029 11.6867C58.4414 11.3602 58.9942 11.0556 58.3478 11.3058C59.1356 11.8891 57.7645 12.0936 57.8819 12.5376C58.5914 12.8249 57.8753 13.4103 57.9231 14.1894C57.6424 14.0262 57.0829 15.2036 56.6628 15.7106L56.5693 15.6562C57.2243 16.0371 56.8978 16.5986 56.9609 17.1362C56.5321 17.0121 56.3994 16.8097 56.2275 16.4593L56.1034 16.888C56.3841 17.0512 56.4233 17.1992 56.3536 17.5344L55.7921 17.2079C55.6136 17.7302 56.1446 18.5399 55.4285 19.1252C55.9508 19.3038 57.0804 19.0841 57.2217 19.9176C56.8866 19.848 56.4578 19.7239 56.3251 19.5214C56.2707 19.615 56.497 19.8719 56.349 19.911L55.99 19.4518C55.7245 19.0469 56.3012 19.1319 56.1924 19.319C55.7636 19.1949 55.8964 19.3973 55.5612 19.3277C55.5221 19.1797 55.7636 19.1949 55.6309 18.9925C55.4676 19.2733 55.0628 19.5387 54.7668 19.6171C55.0084 19.6323 55.2891 19.7956 55.2739 20.0371C55.0953 20.5595 54.7363 20.1002 54.3859 20.2721C54.6122 20.5289 54.2073 20.7944 54.8777 20.9338C54.7688 21.1209 54.5817 21.0121 54.3401 20.9968C54.512 21.3473 54.0614 22.3375 54.747 22.2352L54.8014 22.1417C55.1691 23.2321 53.9546 24.0285 53.8935 24.9948L53.652 24.9796C53.7542 25.6651 53.4277 26.2266 53.7323 26.7794C53.6235 26.9666 53.273 27.1385 52.9923 26.9752C53.0554 27.5128 53.2969 27.5281 52.7288 28.0743C52.4242 27.5215 52.3393 28.0982 52.5178 27.5759C52.1913 28.1374 51.8017 28.1613 52.2391 28.9165C51.7712 28.6444 51.4447 29.2059 51.523 29.5019L51.9822 29.1428C52.0061 29.5324 51.8973 29.7196 51.734 30.0003L51.0246 29.7129C50.426 30.7423 52.4694 32.1811 50.8806 32.7599C51.2941 33.1256 51.3551 32.1592 51.8622 32.5793C51.6837 33.1017 50.5933 33.4694 50.4844 33.6565C50.0099 34.2572 51.3505 34.5359 50.9696 35.1909C51.2656 35.1126 51.9903 35.1584 52.0926 35.844C51.914 36.3663 50.9477 36.3052 50.7758 35.9548C50.7367 35.8068 50.8847 35.7677 50.9782 35.8221C50.9391 35.6741 50.8608 35.3781 50.5103 35.55L50.6975 35.6588C50.4407 35.8851 50.2469 36.649 49.927 36.3378C50.0445 36.7818 50.3013 36.5555 50.4646 36.2747C49.9901 36.8753 50.2011 37.3738 49.9138 38.0832C50.0618 38.0441 50.3578 37.9658 50.3033 38.0593C49.8527 39.0496 50.756 38.573 50.7102 39.2978C50.2509 39.6568 49.7591 38.9951 50.0485 39.7895C49.6828 40.203 49.3238 39.7438 49.191 39.5414C49.6284 40.2966 48.7796 40.6796 48.5619 41.0539L48.39 40.7035C48.5228 40.9059 48.4139 41.093 48.4531 41.241L48.9907 41.178C48.8818 41.3651 48.8666 41.6067 48.6794 41.4979C48.9993 41.8091 49.5521 41.5045 49.9112 41.9637C49.6544 42.1901 50.0526 42.7973 49.4214 42.806C49.7632 42.0029 48.6967 42.7602 48.7425 42.0355C48.7816 42.1834 48.8208 42.3314 48.7119 42.5186C48.5639 42.5578 48.6184 42.4642 48.5248 42.4098C47.8478 43.1431 49.2734 42.8451 49.1188 43.757C48.7445 43.5393 48.4332 43.8592 48.4724 44.0072C48.4485 43.6177 49.01 43.9442 49.2363 44.201C48.8162 44.7081 49.3929 44.793 49.3232 45.1282L49.4865 44.8474C49.8608 45.0651 49.752 45.2523 49.8695 45.6963C49.6279 45.681 49.6976 45.3458 49.5496 45.385C50.1502 45.8595 48.7638 46.3055 49.162 46.9128C48.9052 47.1391 48.4373 46.867 48.1804 47.0933C48.6178 47.8486 47.5579 47.7331 47.9017 48.434C48.4937 48.2773 48.2521 48.2621 48.7984 48.8302L48.4851 47.6462L49.2576 48.4711C49.3273 48.1359 48.9682 47.6767 49.0771 47.4895C49.4906 47.8552 49.3426 47.8944 49.841 47.6833C48.9921 48.0663 50.1695 48.6257 49.6558 49.0783L48.3544 48.9476C47.771 49.7354 48.894 50.3885 48.4825 51.5267L48.7002 51.1524C49.2225 51.3309 48.7088 51.7835 48.8807 52.1339C48.452 52.0098 48.2887 52.2906 47.9927 52.3689C48.3279 52.4386 47.8925 53.1872 48.7109 53.2874L48.1036 53.6856C47.8554 54.5431 49.2505 54.7282 49.1503 55.5465C48.6824 55.2744 48.3711 55.5943 48.0665 55.0415C48.0512 55.2831 47.9815 55.6182 48.2775 55.5399C48.0751 55.6726 48.8085 56.3496 48.4581 56.5215C48.6452 56.6303 49.1284 56.6608 49.0587 56.996C48.9107 57.0352 48.8171 56.9807 48.8171 56.9807C49.0587 56.996 49.0282 57.4791 49.581 57.1745C48.2185 58.0101 49.5764 59.5511 48.4163 60.254C48.573 60.846 48.7688 61.586 48.7383 62.0691C48.6447 62.0147 48.4967 62.0539 48.5511 61.9603C48.1157 62.7089 49.7829 62.4262 49.2931 63.2684C48.6314 63.7602 48.9341 62.8091 48.6228 63.129C47.1581 63.279 48.8033 64.1106 48.0328 64.7895L47.9937 64.6416C47.48 65.0942 48.5094 65.6928 48.4636 66.4175C48.4636 66.4175 48.37 66.3631 48.222 66.4023C48.9707 66.8376 49.2992 67.78 49.5494 68.4265C49.0271 68.2479 49.2295 68.1152 48.6375 68.2718C48.7158 68.5678 49.4711 68.1305 49.7213 68.7769C49.4645 69.0032 49.1924 69.4711 48.6548 69.5341L48.5917 68.9966C47.8909 69.3404 48.6395 69.7757 48.5699 70.1109L48.2347 70.0412C48.3761 70.8748 49.2488 70.8814 49.1878 71.8477L49.3902 71.715C50.2324 72.2047 48.9701 72.222 49.6252 72.603L48.7372 72.8379C48.9091 73.1883 49.6816 74.0133 49.8927 74.5117C49.1832 74.2243 48.8394 73.5235 48.4259 73.1578C48.4498 73.5474 48.6456 74.2874 49.0744 74.4115C49.0352 74.2635 48.7545 74.1002 48.8089 74.0066C49.4639 74.3876 49.9166 74.9013 49.9252 75.5324C48.2733 75.5736 49.616 77.3562 48.5103 77.9655C49.2676 79.032 48.5993 80.3965 48.8973 81.8221C50.0574 81.1192 49.0148 82.2661 50.2924 82.0072C50.3707 82.3032 50.4098 82.4512 50.3554 82.5448L49.7024 83.6677C49.3911 83.9876 49.3825 83.3565 49.0865 83.4348C49.0407 84.1595 48.5728 83.8874 48.3007 84.3553C48.7447 84.2379 48.971 84.4947 48.9405 84.9778L49.4695 84.2836C50.3356 85.163 48.4813 85.3369 49.3474 86.2163L48.8795 85.9442C49.2385 86.4034 49.2406 87.9073 50.3396 88.1708C50.1372 88.3035 49.8804 88.5298 49.7476 88.3274C49.7649 89.5897 51.4341 90.8108 50.929 91.8946L50.5939 91.8249C50.7266 92.0274 51.3034 92.1123 50.9921 92.4322C50.8441 92.4714 50.657 92.3625 50.6961 92.5105C50.8833 92.6194 51.3903 93.0394 51.2271 93.3202L50.7983 93.1961C50.6676 94.4976 52.1018 94.8307 52.5784 95.7339C51.6904 95.9689 51.6293 96.9352 51.5444 97.5119L51.3964 97.5511C51.6944 98.9767 52.763 99.7233 53.4658 100.883C52.7192 101.952 53.8747 103.626 53.6351 105.114C53.744 104.927 54.3751 104.918 54.5079 105.121C54.4382 105.456 55.3893 105.759 54.5557 105.9L54.5165 105.752C53.7613 106.189 54.1595 106.797 54.277 107.241L55.4065 107.021C54.279 108.745 57.0625 109.988 55.8719 111.174C56.2462 111.391 56.4181 111.742 56.6988 111.905L56.1068 112.062C56.2482 112.895 56.3657 113.339 56.7878 114.336L56.3046 114.305C56.4613 114.897 58.2373 114.428 58.4483 114.926L57.9891 115.285C58.4112 116.282 58.0389 117.568 59.1618 118.221C59.0138 118.26 58.7179 118.339 58.6787 118.191C58.7962 118.635 58.8918 120.193 59.9039 119.529C59.203 119.873 60.2716 120.62 60.833 120.946L60.241 121.103C61.1529 121.257 61.3554 121.125 61.808 121.638C61.8472 121.786 61.4032 121.904 61.512 121.717C61.4271 122.293 62.1823 121.856 62.1365 122.581L61.6534 122.55C61.8644 123.049 62.0669 122.916 62.4956 123.04C62.8699 123.258 62.7697 124.076 62.3649 124.341C62.6609 124.263 63.2376 124.348 63.1679 124.683C62.9655 124.816 62.8719 124.762 62.7784 124.707C62.8109 125.728 63.9796 125.656 63.6923 126.366C63.4899 126.498 63.4354 126.592 63.4354 126.592C63.1852 125.946 62.8806 125.393 62.9742 125.447C62.4757 125.658 62.6324 126.25 61.7205 126.096C62.3364 126.328 63.529 126.646 63.5377 127.277C63.4832 127.371 63.4832 127.371 63.4288 127.465L63.3352 127.41C63.3744 127.558 63.4136 127.706 63.6551 127.721C63.6399 127.963 63.5855 128.057 63.7182 128.259C63.3134 128.525 63.8204 128.945 63.8987 129.241C64.4516 128.936 64.4755 129.326 64.802 128.764C64.7476 128.858 64.7084 128.71 64.6148 128.655L64.5213 128.601C64.3885 128.398 64.2558 128.196 64.123 127.994C64.4582 128.063 64.7933 128.133 64.6693 128.562C65.0588 128.538 65.5028 128.42 65.7444 128.436C65.161 129.223 65.0608 130.042 64.6016 130.401C65.335 131.078 65.7571 132.074 67.0194 132.057C67.3001 132.22 66.8953 132.486 66.7865 132.673C66.5993 132.564 66.5601 132.416 66.4121 132.455C66.88 132.728 67.2086 133.67 67.9486 133.474C67.9028 134.199 67.1694 133.522 67.6612 134.184L67.4196 134.168C67.0952 136.234 70.5383 135.481 70.0897 137.975C70.0505 137.827 70.1049 137.734 70.1594 137.64C70.5988 139.899 73.0471 141.072 73.1905 143.41C73.3471 144.002 73.7911 143.884 74.2743 143.915L73.7606 144.368L74.8205 144.483C75.8107 144.934 74.2936 146.681 75.8758 146.975L76.1871 146.655C76.359 147.006 77.0532 147.535 76.6483 147.8C76.7963 147.761 77.0923 147.683 76.9835 147.87L76.7267 148.096L77.8105 148.601C78.0998 149.395 76.6504 149.304 77.2205 150.262C77.5948 150.479 78.8027 150.556 78.818 150.314C78.7788 150.166 78.7005 149.87 78.9573 149.644L79.3316 149.861C80.1413 149.33 81.1381 148.908 81.16 147.794L80.2481 147.639L80.5202 147.171L80.8793 147.631C81.0578 147.108 80.6138 147.226 80.2786 147.156C80.481 147.023 80.4963 146.782 80.6051 146.595L79.4364 146.666C79.7477 146.346 80.2308 146.377 80.2069 145.987C79.6694 146.051 79.6236 146.775 79.1557 146.503C79.3342 145.981 79.6846 145.809 79.2015 145.778C79.4039 145.646 79.5519 145.607 79.6999 145.567C79.2711 145.443 79.0601 144.945 78.5617 145.156C78.8882 144.594 77.7891 144.331 78.5988 143.8C78.3028 143.878 77.6325 143.739 77.4997 143.537C78.7229 143.371 76.9296 142.579 78.0353 141.97C76.9993 142.244 76.834 141.021 75.9765 140.772C76.1245 140.733 76.2725 140.694 76.2181 140.788C76.0462 140.437 76.2095 140.156 76.2792 139.821C75.5239 140.259 75.0169 139.839 74.3857 139.847C74.8755 139.005 75.4217 139.573 75.9898 139.027C75.3825 139.425 74.9452 138.67 74.5795 139.083C74.8124 138.467 74.5556 138.694 75.1237 138.148C74.2204 138.624 74.7494 137.93 74.0638 138.032C74.2576 137.268 74.8343 137.353 74.2728 137.027C74.5841 136.707 75.2 136.94 75.2 136.94ZM66.8938 125.598C66.9874 125.652 67.0266 125.8 67.0266 125.8C67.0266 125.8 66.9874 125.652 66.8938 125.598ZM66.3781 124.546C66.4173 124.694 66.4564 124.842 66.5892 125.045C66.3868 125.178 66.2388 125.217 66.1452 125.162C66.3476 125.03 66.2693 124.734 66.3781 124.546ZM63.6485 128.594C63.4614 128.485 63.5702 128.298 63.7182 128.259C63.8118 128.313 63.8509 128.461 63.9445 128.516C63.9445 128.516 63.9445 128.516 64.0381 128.57C63.8901 128.609 63.7421 128.649 63.6485 128.594Z" fill="white"/>
<path d="M64.5215 128.601C64.5215 128.601 64.6151 128.655 64.5215 128.601C64.6695 128.562 64.6695 128.562 64.7239 128.468C64.6303 128.414 64.5759 128.507 64.5215 128.601Z" fill="white"/>
<path d="M61.2457 109.039L61.0977 109.078L61.1912 109.133L61.2457 109.039Z" fill="white"/>
<path d="M58.7363 16.6665L58.8843 16.6273C58.8843 16.6273 58.8843 16.6273 58.7363 16.6665Z" fill="white"/>
<path d="M59.7778 14.0156L60.0891 13.6957C59.9803 13.8829 59.9258 13.9765 59.7778 14.0156Z" fill="white"/>
<path d="M53.3758 45.4813C53.3758 45.4813 53.4694 45.5357 53.3758 45.4813C53.4541 45.7773 53.5086 45.6837 53.3758 45.4813Z" fill="white"/>
<path d="M53.4941 35.1566C53.5333 35.3046 53.7204 35.4134 53.7596 35.5614C53.8684 35.3743 53.8292 35.2263 53.4941 35.1566Z" fill="white"/>
<path d="M53.6356 35.99C53.7444 35.8028 53.7988 35.7092 53.7597 35.5612C53.7053 35.6548 53.5964 35.842 53.6356 35.99Z" fill="white"/>
<path d="M64.7035 3.60624C64.6643 3.45825 64.6643 3.45825 64.7035 3.60624V3.60624Z" fill="white"/>
<path d="M64.6644 3.4583C64.6253 3.3103 64.5708 3.40388 64.6644 3.4583V3.4583Z" fill="white"/>
<path d="M64.5468 3.01449L64.6251 3.3105C64.6796 3.21691 64.734 3.12333 64.5468 3.01449Z" fill="white"/>
<path d="M63.0407 6.89676C63.1496 6.7096 63.6871 6.64653 63.6632 6.25696L63.4761 6.14812C63.7024 6.40496 62.7208 6.5855 63.0407 6.89676Z" fill="white"/>
<path d="M59.1556 9.27093L59.5366 8.61587C59.2406 8.69419 58.851 8.71809 58.9751 8.28935C57.963 8.95306 59.5518 8.37429 59.1556 9.27093Z" fill="white"/>
<path d="M57.9583 11.3298C57.9343 10.9403 57.6231 11.2602 57.5295 11.2057C57.6623 11.4082 57.6078 11.5017 57.9583 11.3298Z" fill="white"/>
<path d="M52.9772 27.2172L52.4549 27.0387C52.4396 27.2803 52.6965 27.0539 52.9772 27.2172Z" fill="white"/>
<path d="M55.0703 30.9386L55.4751 30.6732L54.9528 30.4947L55.0703 30.9386Z" fill="white"/>
<path d="M50.7935 31.8328L50.7543 31.6848L50.8174 32.2223L50.7935 31.8328Z" fill="white"/>
<path d="M47.8548 59.9279L48.5404 59.8256C48.4076 59.6232 47.5893 59.523 47.8548 59.9279Z" fill="white"/>
<path d="M48.8916 71.926C48.5412 72.0979 48.3235 72.4722 48.7522 72.5963C48.7675 72.3548 49.0243 72.1284 48.8916 71.926Z" fill="white"/>
<path d="M55.0644 107.824L54.7836 107.661L55.0491 108.066L55.0644 107.824Z" fill="white"/>
<path d="M82.5588 138.714L80.3454 138.429L79.1909 149.028L68.6922 147.055L68.3133 149.214L81.0645 151.62L82.5588 138.714Z" fill="white"/>
</g>
<defs>
<clipPath id="clip0">
<rect width="126.655" height="91.2566" fill="white" transform="translate(0 109.488) rotate(-59.8207)"/>
</clipPath>
</defs>
</svg>
