<svg width="94" height="192" viewBox="0 0 94 192" fill="none" xmlns="http://www.w3.org/2000/svg">
<g clip-path="url(#clip0)">
<path d="M7.7915 191.844C7.60367 191.944 7.22299 191.954 7.30813 191.571L7.96929 191.363L7.7915 191.844Z" fill="white"/>
<path d="M6.59451 189.781C6.86999 189.393 7.43097 188.997 8.007 189.172C7.44602 189.568 7.63887 189.658 6.98272 190.056C6.89507 190.344 7.18811 190.622 7.37594 190.522C7.18811 190.622 7.48365 190.995 7.10799 191.196C6.62211 190.828 6.60706 190.257 6.97519 189.771C6.87751 189.678 6.68968 189.778 6.59451 189.781Z" fill="white"/>
<path d="M6.56055 159.592L6.66073 159.78C6.56556 159.782 6.56306 159.687 6.56055 159.592Z" fill="white"/>
<path d="M8.4506 140.971C8.45311 141.066 8.36045 141.164 8.26528 141.167C8.35543 140.974 8.35292 140.879 8.4506 140.971Z" fill="white"/>
<path d="M8.26767 137.643C8.27017 137.738 8.27017 137.738 8.27268 137.833C8.17501 137.74 8.17501 137.74 8.26767 137.643Z" fill="white"/>
<path d="M6.56031 159.592L6.35743 159.121C6.54526 159.021 6.45761 159.309 6.56031 159.592Z" fill="white"/>
<path d="M8.1044 185.646C8.10691 185.741 8.01425 185.839 7.92159 185.936C7.91908 185.841 8.01174 185.744 8.00923 185.648C8.00923 185.648 8.00923 185.648 8.1044 185.646Z" fill="white"/>
<path d="M5.44371 167.812L5.44873 168.002C5.35356 168.005 5.2609 168.102 5.16573 168.105L5.44371 167.812Z" fill="white"/>
<path d="M5.13344 174.105C5.12842 173.915 5.60426 173.902 5.88977 173.895C5.70194 173.995 5.51411 174.095 5.51662 174.191C5.42145 174.193 5.23111 174.198 5.13344 174.105Z" fill="white"/>
<path d="M5.87544 184.181L5.78529 184.373C5.88046 184.371 5.87795 184.276 5.87544 184.181Z" fill="white"/>
<path d="M5.60886 163.236C5.51369 163.239 5.41602 163.146 5.41602 163.146C5.51369 163.239 5.60886 163.236 5.60886 163.236Z" fill="white"/>
<path d="M82.7143 10.1598C82.7118 10.0646 82.7118 10.0646 82.7143 10.1598C82.7118 10.0646 82.807 10.0621 82.7143 10.1598Z" fill="white"/>
<path d="M86.8267 3.57539L86.7315 3.5779C86.6338 3.48524 86.6313 3.39007 86.5361 3.39258L86.8267 3.57539Z" fill="white"/>
<path d="M8.58771 131.73C8.58771 131.73 8.59022 131.825 8.58771 131.73C8.49756 131.923 8.59022 131.825 8.58771 131.73Z" fill="white"/>
<path d="M24.9473 80.3477C25.1577 81.104 25.8814 79.6564 26.0042 80.7008C25.904 80.5129 24.9674 81.109 24.9473 80.3477Z" fill="white"/>
<path d="M11.8604 118.596C11.958 118.689 11.958 118.689 12.0557 118.782C11.9605 118.784 11.8629 118.691 11.8604 118.596Z" fill="white"/>
<path d="M13.9215 113.685C13.919 113.59 13.8213 113.497 14.0067 113.302C14.0067 113.302 14.0067 113.302 14.0092 113.397C13.914 113.399 13.8213 113.497 13.9215 113.685Z" fill="white"/>
<path d="M15.4038 108.503C15.4038 108.503 15.4063 108.598 15.5015 108.596C15.504 108.691 15.4088 108.693 15.4113 108.788L15.4038 108.503Z" fill="white"/>
<path d="M70.616 20.8595C70.611 20.6692 70.5108 20.4813 70.4131 20.3887C70.611 20.6692 71.2646 20.1758 70.616 20.8595Z" fill="white"/>
<path d="M7.81898 185.653C7.91415 185.651 8.00681 185.553 8.0043 185.458C8.00681 185.553 8.00681 185.553 8.00932 185.648C7.91415 185.651 7.81898 185.653 7.81898 185.653Z" fill="white"/>
<path d="M18.0416 114.624L18.2094 113.763C18.1192 113.955 18.1293 114.336 18.0416 114.624Z" fill="white"/>
<path d="M46.3516 50.5459L46.5395 50.4457C46.4443 50.4482 46.4468 50.5433 46.3516 50.5459Z" fill="white"/>
<path d="M18.9076 111.363C18.8074 111.175 18.7072 110.987 18.7022 110.797C18.7974 110.794 18.7949 110.699 18.89 110.697L18.9076 111.363Z" fill="white"/>
<path d="M75.2841 17.3082C74.7281 17.8943 74.5152 17.0428 74.1295 16.8625C73.2855 17.3609 74.1471 17.5286 74.1596 18.0045C73.5961 18.3051 72.8298 18.1348 72.5543 18.523C72.652 18.6156 72.5593 18.7133 72.7496 18.7083C71.8931 18.7309 71.3547 19.9831 70.3079 20.0107C70.3104 20.1059 70.3129 20.2011 70.408 20.1986C70.2077 19.8229 70.0123 19.6376 69.817 19.4523C69.539 19.7453 69.0581 19.5675 69.261 20.0383C69.4463 19.843 69.5465 20.0308 69.7368 20.0258L69.3587 20.131C69.5691 20.8873 69.9247 19.9256 70.2202 20.2988C69.5641 20.697 68.5222 20.9149 68.2518 21.4935C68.6475 22.0545 69.3737 20.702 69.2085 21.6587L69.6643 20.8848C69.8872 22.117 69.9397 20.4966 70.3505 21.6286C69.7094 22.5979 69.226 22.3249 68.5849 23.2942C68.1066 23.2115 68.2869 22.8258 67.811 22.8384C66.2107 23.5472 68.0566 24.9271 66.634 25.1551C66.0605 25.0749 65.3818 24.6167 65.1214 25.5759L65.8902 25.8413C65.1515 26.7179 64.6455 25.5884 64.2023 26.8382C64.5855 26.9233 64.9511 26.3423 64.9561 26.5326C64.886 27.4868 64.2924 26.6453 63.9218 27.036L64.3175 27.597C63.4811 28.3809 62.2614 29.0797 61.2397 30.059C61.4325 30.1492 61.7155 30.0465 61.7255 30.4272C60.3231 31.4165 59.5117 33.1521 58.7905 34.6949L57.9365 34.8127C57.8438 34.9103 57.9465 35.1933 58.1343 35.0931C57.8639 35.6717 57.8438 34.9103 57.4657 35.0155C57.1877 35.3086 57.3855 35.5891 57.6685 35.4864C56.6342 35.9898 54.9563 37.3673 54.7034 38.6121L54.9864 38.5094C54.6283 39.3759 53.4662 38.6447 53.3009 39.6014L53.4888 39.5012C52.4871 41.2418 50.8116 42.7145 50.5713 44.4351C49.7072 44.1722 49.7624 46.2659 48.7005 45.7225C48.5428 46.9647 48.8258 46.862 48.2924 48.3046C48.1121 48.6903 47.3432 48.4249 46.9726 48.8156L47.4585 49.1837L46.5118 49.3991L46.91 50.0553L46.5369 50.3508C46.627 50.158 46.5243 49.875 46.4267 49.7823C45.773 50.2757 45.713 51.6106 46.0035 51.7934L44.6086 53.0683C44.8014 53.1584 45.0819 52.9605 45.3649 52.8578C44.3306 53.3613 45.7581 53.3237 44.819 53.8246C44.814 53.6343 44.5285 53.6418 44.3381 53.6468C44.3532 54.2178 43.8999 55.0869 43.3414 55.5778L43.7246 55.6629C43.0885 56.8225 42.0718 57.9921 41.343 59.2494C41.4231 58.6759 40.7494 58.4079 40.474 58.7961L40.9624 59.2594C40.4865 59.272 41.045 58.7811 40.2886 58.9915C40.0157 59.4749 40.6869 59.6476 41.065 59.5424L40.5066 60.0333C40.6043 60.126 40.7946 60.121 41.0801 60.1135C40.6043 60.126 41.0201 61.4483 40.2587 61.4684L40.3564 61.5611C39.6276 62.8183 39.0717 63.4044 38.4306 64.3737C37.9472 64.1007 37.8646 64.5791 37.2961 64.6893C37.0331 65.5533 36.8704 66.6052 36.3245 67.572C35.6733 68.1605 35.8486 67.5845 35.3753 67.6922C35.7635 67.9677 35.2176 68.9344 35.7785 68.5387C35.1425 69.6983 34.9596 69.9888 33.8502 71.2561C33.7475 70.9731 33.7425 70.7828 33.5522 70.7878C33.3669 70.9832 33.3794 71.459 33.6674 71.5467L33.7626 71.5441C33.0188 72.2304 32.856 73.2823 32.6933 74.3342C32.5306 75.386 32.3678 76.4379 31.6165 76.8387L31.7092 76.741L30.5972 77.9131C30.3293 78.5868 31.0681 77.7102 31.1783 78.2787C29.7808 79.4584 30.1941 80.6856 29.0772 81.6674C29.9764 83.2627 27.5471 85.041 27.7826 86.749L27.3068 86.7615C26.8359 86.9644 27.3193 87.2374 27.2317 87.5254C27.0388 87.4352 27.124 87.0521 26.841 87.1547C25.1981 89.8647 25.003 93.2983 24.0364 96.3713C23.781 97.5208 22.133 96.4215 22.4611 98.0318L23.2175 97.8214C21.7449 99.7649 21.6223 102.34 20.3427 104.373C20.5305 104.273 20.7233 104.363 20.7183 104.173C21.0189 104.736 20.1925 105.901 19.9044 105.813C19.8193 106.196 20.195 105.996 20.2977 106.279C20.4079 106.848 19.3711 107.256 19.7618 107.627C19.8594 107.719 19.9496 107.526 20.0423 107.429C19.7618 107.627 19.6992 108.866 19.2108 108.403C19.2334 109.259 18.4896 109.946 18.6048 110.705C17.9462 111.008 18.4546 112.232 17.5931 112.065C18.4546 112.232 17.9213 113.675 17.3628 114.166C17.6458 114.063 17.473 114.734 17.9463 114.627C17.7711 115.203 17.5006 115.781 17.1124 115.506C17.8162 116.916 15.7375 117.542 16.8095 118.466C16.3562 119.335 15.9004 120.109 15.5423 120.975C15.1817 121.747 14.9188 122.611 14.5582 123.382C15.4197 123.55 15.0816 121.559 15.9481 121.917C15.2244 123.365 14.3879 124.149 14.2377 125.676C14.2478 126.057 14.6159 125.571 14.8037 125.471C14.08 126.919 14.2153 128.439 13.4891 129.791C13.5843 129.789 13.6769 129.691 13.7671 129.498C13.6794 129.786 13.7846 130.164 13.4014 130.079L13.5843 129.789C13.0934 129.23 12.1793 130.683 11.8913 130.595C13.0283 130.375 11.9289 132.023 13.4416 131.602C13.3514 131.795 13.0709 131.993 12.8781 131.903C12.8856 132.188 13.0785 132.278 13.359 132.08C13.0034 133.042 12.6101 132.576 12.4424 133.438C12.6327 133.433 12.7254 133.335 13.0084 133.232C12.5426 133.626 12.0768 134.019 12.0968 134.78C12.192 134.778 12.3848 134.868 12.3798 134.678C12.1269 135.922 11.005 136.714 11.1378 138.139C11.9868 137.831 11.3432 138.705 12.0144 138.878C11.9242 139.07 11.7414 139.361 11.6538 139.649L11.3582 139.276C11.2806 139.944 10.7221 140.435 10.8349 141.099L11.203 140.613L10.8549 141.86L10.7397 141.102C10.2789 141.685 9.87816 140.934 9.90074 141.79C9.99089 141.597 9.82313 142.459 10.2163 142.925C9.93837 143.218 9.66039 143.511 9.77061 144.079C9.96596 144.265 10.532 144.059 10.7248 144.149C10.0636 144.357 10.2891 145.685 9.63044 145.988C9.81827 145.888 10.1989 145.878 10.2015 145.973L9.63546 146.178C9.74066 146.556 9.83583 146.554 10.1213 146.546C10.0513 147.5 9.25227 146.093 9.47523 147.325C9.56789 147.227 9.5704 147.323 9.66055 147.13C9.69065 148.272 9.04955 149.241 9.17232 150.285C9.84854 150.649 9.43525 149.421 10.0163 149.787C9.76842 151.222 8.85687 152.77 8.8945 154.197L8.88697 153.912C7.84262 154.035 9.29776 155.044 8.7443 155.725C8.83445 155.532 9.3103 155.52 9.21764 155.617C9.24523 156.664 8.79447 157.629 8.26109 159.071L8.54158 158.873C8.74697 159.439 8.58172 160.396 8.59928 161.062C8.31879 161.26 8.32632 161.546 7.94062 161.365C9.32818 163.424 6.89392 165.012 7.98845 166.792C7.98343 166.602 8.26141 166.309 8.26643 166.499L7.92339 167.937C7.53769 167.757 7.63286 167.754 7.33732 167.381C7.05683 167.579 6.87652 167.965 6.79139 168.348C7.1545 167.672 7.46008 168.425 7.75312 168.703C7.65544 168.611 7.46761 168.711 7.37244 168.713C8.15637 169.55 6.42325 168.834 6.9267 169.868L7.11704 169.863C7.0319 170.246 6.66126 170.637 6.76646 171.015C7.24733 171.193 7.04194 170.627 7.42261 170.617C7.3425 171.19 6.40586 171.786 6.89675 172.345C7.07957 172.054 7.07204 171.769 7.15968 171.481C7.74826 172.132 7.55792 172.137 7.66564 172.61L7.88357 173.652L7.68571 173.372C6.3709 174.073 7.44034 174.902 6.51373 175.879C7.34517 174.904 6.98707 175.771 7.55558 175.661C7.75344 175.941 7.85865 176.319 8.04648 176.219C7.58317 176.708 8.35205 176.973 7.70343 177.657C7.89377 177.652 7.71597 178.133 8.18931 178.025C8.01402 178.601 7.89879 177.842 7.61579 177.945C6.97469 178.914 8.24701 180.214 7.42561 181.569C7.07504 182.721 6.41387 182.929 6.15847 184.078C6.45401 184.451 6.81712 183.775 6.81712 183.775C7.11768 184.339 7.03506 184.817 6.85977 185.393C7.0476 185.293 7.14528 185.386 7.34064 185.571C7.25801 186.049 6.68198 185.874 6.98254 186.437C7.17037 186.337 7.54854 186.232 7.73135 185.942C7.55606 186.518 7.18793 187.003 7.01264 187.579C7.30317 187.762 7.48096 187.281 7.66629 187.086C7.491 187.662 7.42343 188.711 6.85743 188.917L6.65705 188.541C6.66207 188.732 7.13541 188.624 7.22807 188.526C7.5962 188.04 7.01766 187.77 6.82732 187.775L6.74219 188.158C5.68529 187.805 6.88988 186.535 6.86981 185.774L6.11598 186.079L6.76209 185.3C6.56674 185.115 6.08838 185.032 6.00325 185.416C5.60752 184.855 6.27621 184.932 5.88299 184.466C5.78531 184.374 5.78782 184.469 5.78782 184.469L6.05828 183.89C5.87045 183.991 5.48475 183.81 5.58745 184.093C5.08401 183.059 6.21099 182.458 5.53477 182.095L5.44211 182.192C5.69249 180.853 6.01061 182.082 6.6492 181.018L5.20159 180.294L5.7701 180.184C5.76508 179.993 5.76006 179.803 5.47456 179.811C5.84269 179.325 5.76257 179.898 6.13572 179.603C5.64232 178.949 6.46623 177.689 5.50952 177.524C5.98035 177.321 5.81259 178.183 6.1757 177.507C5.21648 177.246 6.34346 176.645 5.94522 175.989C5.37922 176.194 5.67979 176.758 5.28155 176.102C6.13054 175.794 5.15376 174.867 5.33156 174.386C5.99774 174.368 5.68213 173.234 5.94506 172.37C5.75472 172.375 5.6144 170.664 5.40148 169.813L5.30631 169.815C5.96999 169.703 5.94741 168.846 6.12269 168.27C5.74202 168.28 5.55419 168.38 5.2762 168.673L5.35632 168.1C5.54415 168 5.72947 167.804 5.81461 167.421L5.2461 167.531C5.3212 166.767 5.96731 165.989 5.65421 164.949C6.13006 164.937 6.9165 165.868 7.36475 164.809C7.07673 164.721 6.69355 164.636 6.51073 164.927C6.50823 164.831 6.78872 164.634 6.68853 164.446L6.22272 164.839C6.01984 164.368 6.59838 164.639 6.58834 164.258C6.20767 164.268 6.29531 163.98 6.0098 163.987C6.01231 164.083 6.1125 164.27 6.02234 164.463C6.01231 164.083 5.80692 163.517 5.51639 163.334C5.70924 163.424 5.99475 163.416 6.07988 163.033C6.15498 162.269 5.69168 162.758 5.4888 162.287C5.76929 162.089 5.5664 161.618 6.04225 161.606C6.03723 161.415 5.74922 161.328 5.65154 161.235C5.92701 160.847 5.88687 159.324 6.37777 159.883L6.38028 159.978C6.38028 159.978 6.38028 159.978 6.37777 159.883C7.01134 158.628 6.30502 157.123 6.65308 155.876L6.46274 155.881C6.72818 155.112 6.79826 154.157 7.26157 153.669C7.25655 153.479 6.96101 153.106 6.77318 153.206C6.94846 152.63 7.23397 152.622 7.01855 151.676C6.65292 152.257 6.72551 151.398 6.74809 152.254C6.63285 151.495 6.33982 151.217 6.98844 150.533C6.51761 150.736 6.49503 149.88 6.67534 149.494L6.9759 150.058C7.06103 149.674 7.051 149.294 7.04096 148.913L6.37728 149.026C5.76111 147.328 8.11526 146.313 6.9381 145.011C7.40392 144.618 7.15102 145.863 7.71451 145.562C7.69444 144.801 6.91051 143.964 6.99815 143.676C6.78022 142.634 8.02494 142.887 7.99735 141.84C8.1927 142.026 8.76874 142.201 9.13185 141.525C9.11178 140.763 8.3429 140.498 8.06743 140.886C7.97728 141.079 8.07496 141.172 8.17013 141.169C8.07997 141.362 7.89716 141.653 7.6993 141.372L7.9823 141.269C7.78192 140.894 7.94466 139.842 7.569 140.042C7.84197 139.559 7.94467 139.842 8.05238 140.315C7.83695 139.369 8.20509 138.883 8.17749 137.836C8.27768 138.024 8.47303 138.209 8.56318 138.016C8.52555 136.589 9.11915 137.43 9.38208 136.566C9.17669 136 8.52555 136.589 8.97882 135.72C8.86609 135.056 8.40028 135.449 8.21496 135.644C8.7659 134.868 8.26497 133.929 8.25243 133.453L7.97695 133.841C8.15977 133.551 8.15475 133.36 8.2449 133.168L8.63561 133.538C8.62809 133.253 8.62307 133.062 8.43022 132.972C8.80588 132.772 9.10644 133.335 9.66491 132.844C9.46454 132.469 10.1132 131.785 9.53713 131.61C9.56724 132.752 8.95859 131.339 8.69817 132.298C8.78832 132.106 8.87847 131.913 8.77578 131.63C8.6781 131.537 8.68061 131.632 8.58795 131.73C8.27233 130.595 9.33927 131.329 9.50201 130.277C9.12384 130.383 8.92096 129.912 9.01111 129.719C8.92848 130.197 9.49699 130.087 9.86763 129.696C9.7524 128.937 10.2282 128.925 10.2182 128.544L10.2308 129.02C10.6089 128.915 10.6014 128.629 10.8744 128.146C10.5863 128.058 10.5989 128.534 10.4987 128.346C11.25 127.946 10.1781 127.021 10.7315 126.34C10.6263 125.962 10.1555 126.165 10.0503 125.787C10.6964 125.008 9.83235 124.745 10.3833 123.969C10.774 124.339 10.6788 124.342 11.2373 123.851L10.6088 125.296L11.4452 124.512C11.3626 124.99 10.9919 125.381 10.9995 125.667C11.4653 125.273 11.3701 125.276 11.6657 125.649C11.1697 124.9 12.3017 124.489 11.9962 123.736L10.9418 123.478C10.7213 122.341 11.9435 121.737 12.001 120.307L12.1087 120.78C12.5821 120.673 12.3717 119.916 12.6471 119.528C12.2639 119.443 12.2564 119.157 12.0586 118.877C12.3466 118.965 12.3165 117.823 13.0803 117.898L12.7747 117.144C12.8398 115.999 14.1772 116.154 14.3399 115.103C13.8691 115.305 13.7589 114.737 13.3006 115.416C13.3857 115.032 13.3782 114.747 13.6637 114.739C13.4659 114.459 14.4025 113.863 14.107 113.49C14.2948 113.39 14.678 113.475 14.7606 112.996C14.6629 112.904 14.5678 112.906 14.5678 112.906C14.7606 112.996 14.9334 112.325 15.3266 112.791C14.4324 111.386 16.2957 109.813 15.5969 108.593C15.9575 107.822 16.3156 106.955 16.5835 106.282C16.4884 106.284 16.3907 106.192 16.3957 106.382C16.3681 105.335 17.6279 106.159 17.5953 104.922C17.1945 104.17 17.132 105.41 17.0243 104.937C15.8672 104.396 17.5627 103.685 17.1569 102.743L17.0668 102.936C16.8589 102.275 17.9883 101.769 18.2488 100.809C18.2488 100.809 18.1536 100.812 18.0559 100.719C18.9024 100.316 19.4433 99.159 19.8991 98.3851C19.3306 98.4953 19.5259 98.6806 19.1377 98.4051C19.318 98.0194 19.814 98.7682 20.2722 98.0895C20.0719 97.7139 20.0568 97.1428 19.5734 96.8699L19.308 97.6388C18.8171 97.0803 19.6636 96.677 19.6536 96.2963L19.0775 96.1211C19.5258 95.0617 20.2922 95.2319 20.6427 94.0799L20.8381 94.2652C21.7797 93.8594 20.6302 93.604 21.379 93.1081L20.7954 92.6473C21.1661 92.2566 22.0952 91.375 22.4583 90.6988C21.7971 90.9067 21.1535 91.7807 20.5926 92.1765C20.7729 91.7908 21.2211 90.7314 21.5993 90.6262C21.5066 90.7238 21.2261 90.9217 21.2311 91.112C21.985 90.8065 22.5409 90.2204 22.8039 89.3563C21.3663 89.0133 23.3122 86.9621 22.5232 85.9353C23.6326 84.668 23.585 82.8597 24.3988 81.2193C25.1878 82.2461 24.6718 80.7359 25.6385 81.2818C25.914 80.8936 25.909 80.7033 25.909 80.7033C25.8965 80.2275 25.7862 79.659 25.7737 79.1831C25.5708 78.7123 25.4005 79.4786 25.11 79.2958C25.4681 78.4293 24.8095 78.7323 24.7919 78.0662C25.0849 78.3441 25.4581 78.0486 25.5382 77.4751L25.6585 78.4243C26.7754 77.4425 25.2401 77.0067 26.3571 76.0249L25.8863 76.2278C26.3471 75.6443 26.9681 73.9137 28.1051 73.6932C28.0049 73.5054 27.8071 73.2249 27.6242 73.5154C28.1551 71.9777 30.2162 70.6853 30.2738 69.2552L29.9883 69.2627C30.1736 69.0674 30.7446 69.0523 30.6369 68.579C30.5417 68.5815 30.3514 68.5865 30.3464 68.3962C30.5342 68.296 31.1903 67.8978 31.1778 67.4219L30.707 67.6248C31.1402 65.9944 32.5627 65.7664 33.3916 64.697C32.6202 64.3364 33.0635 63.0866 33.2362 62.4154L33.1411 62.4179C33.9524 60.6823 35.2672 59.981 36.4693 58.616C36.2414 57.1935 37.9994 55.2424 38.5253 53.5143C38.5328 53.7998 39.1038 53.7848 39.3843 53.5869C39.4669 53.1086 40.5113 52.9858 39.835 52.6227L39.7424 52.7204C39.249 52.0667 39.9001 51.4781 40.2657 50.8971L41.1348 51.3504C41.0095 50.2108 41.7483 49.3342 42.3944 48.5553C43.0405 47.7764 43.7843 47.0901 43.4788 46.3363C43.9496 46.1334 44.2251 45.7452 44.6959 45.5423L44.2125 45.2694C44.7559 44.2075 45.0289 43.7241 45.953 42.6521L45.4771 42.6647C45.9354 41.986 47.383 42.7097 47.7487 42.1286L47.2553 41.475C48.0842 40.4056 48.3271 38.7801 49.737 38.0763C49.6394 37.9837 49.4465 37.8935 49.2612 38.0889C49.6268 37.5078 50.4382 35.7722 51.1269 36.6112C50.5434 36.1504 51.9534 35.4465 52.7047 35.0458L52.2213 34.7728C53.1705 34.6526 53.2682 34.7452 54.017 34.2493C54.1071 34.0565 53.8166 33.8737 53.729 34.1617C53.8992 33.3953 54.4878 34.0464 54.7507 33.1824L54.2749 33.1949C54.7357 32.6114 54.8359 32.7992 55.4044 32.689C55.8752 32.4861 56.1356 31.5269 55.8401 31.1537C56.1281 31.2414 56.6991 31.2263 56.8794 30.8406C56.7792 30.6528 56.5914 30.753 56.4962 30.7555C56.942 29.6009 58.089 29.7611 58.2543 28.8044C58.1566 28.7118 58.0589 28.6191 58.1516 28.5214C57.503 29.2052 57.0447 29.8839 57.1373 29.7862C56.7491 29.5108 57.2074 28.832 56.2557 28.8571C56.9169 28.6492 58.2417 28.3286 58.6049 27.6524C58.6023 27.5572 58.6023 27.5572 58.5047 27.4645L58.4095 27.467C58.4996 27.2742 58.5923 27.1765 58.7826 27.1715C58.8728 26.9787 58.963 26.7858 59.0531 26.593C58.8527 26.2173 59.5089 25.8191 59.6892 25.4334C60.0799 25.804 60.3554 25.4158 60.3704 25.9868C60.3679 25.8917 60.2753 25.9893 60.0899 26.1847C59.9948 26.1872 59.9973 26.2824 59.9021 26.2849C59.9021 26.2849 59.9021 26.2849 59.9973 26.2824C59.812 26.4777 59.6266 26.6731 59.3486 26.9661C59.7293 26.9561 60.1075 26.8509 60.1876 26.2774C60.5708 26.3625 60.954 26.4476 61.1443 26.4426C60.9314 25.5911 61.2845 24.5342 61.0841 24.1585C62.1134 23.4648 63.1277 22.2 64.3699 22.3577C64.6504 22.1598 64.4525 21.8793 64.3523 21.6915C64.1645 21.7917 63.9792 21.987 63.7863 21.8969C64.445 21.5938 65.2739 20.5244 65.855 20.89C66.2131 20.0234 65.0911 20.8149 65.9276 20.031L65.642 20.0385C66.4359 17.6367 69.5114 18.6984 70.2951 15.9159C70.205 16.1088 70.2075 16.204 70.21 16.2991C71.8578 13.7796 74.8757 12.6524 76.4258 10.0402C76.8841 9.36148 77.2723 9.63696 77.8433 9.6219L77.6379 9.0559L78.6848 9.02831C79.9119 8.61502 79.3834 6.629 81.0914 6.39351L81.1967 6.77168C81.5673 6.38097 82.6968 5.87501 82.3086 5.59954C82.4038 5.59703 82.6943 5.77984 82.7819 5.49183L82.5841 5.21134L84.0016 4.79303C85.0284 4.00408 83.5031 3.94905 84.7152 2.96474C85.2812 2.75935 86.5184 2.72674 86.526 3.01224C86.3381 3.11243 86.1578 3.49813 86.3557 3.77862L86.8265 3.57573C87.4151 4.22687 88.2867 4.77531 87.6506 5.9349L86.6037 5.96249L86.6163 6.43834L87.1773 6.04261C87.0972 6.61614 86.7115 6.43583 86.3308 6.44587C86.431 6.6337 86.436 6.82404 86.3458 7.01688L85.1988 6.85665C85.304 7.23482 85.875 7.21977 85.602 7.70314C85.0285 7.62302 85.3891 6.85163 84.728 7.05953C84.6478 7.63306 84.9384 7.81587 84.3673 7.83092C84.4675 8.01875 84.6604 8.1089 84.8507 8.10389C84.3749 8.11643 83.9141 8.69999 83.4332 8.52219C83.4508 9.18838 82.2161 9.31616 82.8047 9.9673C82.6118 9.87714 81.7553 9.89972 81.4773 10.1928C82.6294 10.5433 80.3604 11.1746 81.2369 11.9133C80.2752 11.5577 79.5465 12.815 78.5071 13.1281C78.6023 13.1256 78.7952 13.2158 78.7927 13.1206C78.422 13.5113 78.5247 13.7943 78.3444 14.18C77.7583 13.624 77.1047 14.1174 76.436 14.0398C76.4611 14.9915 77.3026 14.3979 77.6056 15.0566C77.2124 14.5908 76.376 15.3747 76.1706 14.8087C76.093 15.4774 75.9928 15.2896 76.1982 15.8556C75.5144 15.207 75.7273 16.0585 75.0561 15.8857C74.8884 16.7472 75.552 16.6345 74.703 16.9426C74.6254 17.6113 75.2841 17.3082 75.2841 17.3082ZM61.0443 29.8737C61.1395 29.8712 61.1395 29.8712 61.0443 29.8737C61.137 29.776 61.2296 29.6784 61.3223 29.5807C61.3248 29.6759 61.2321 29.7735 61.0443 29.8737ZM60.0275 31.0433C60.1177 30.8505 60.303 30.6551 60.4908 30.555C60.3907 30.3671 60.1978 30.277 60.1077 30.4698C60.2028 30.4673 60.1152 30.7553 60.0275 31.0433ZM59.5164 26.1046C59.3286 26.2048 59.3336 26.3951 59.3361 26.4903C59.4288 26.3926 59.5214 26.2949 59.7093 26.1947L59.8044 26.1922C59.6116 26.1021 59.5164 26.1046 59.5164 26.1046Z" fill="white"/>
<path d="M60.2803 26.1796C60.2803 26.1796 60.3755 26.1771 60.373 26.0819C60.3755 26.1771 60.3755 26.1771 60.378 26.2722C60.2828 26.2747 60.2828 26.2747 60.1851 26.1821C60.2828 26.2747 60.2803 26.1796 60.2803 26.1796Z" fill="white"/>
<path d="M47.5537 49.181L47.4561 49.0884L47.6464 49.0834L47.5537 49.181Z" fill="white"/>
<path d="M7.85059 168.796L7.94826 168.889C7.94826 168.889 7.85309 168.891 7.85059 168.796Z" fill="white"/>
<path d="M7.76074 172.607L7.96613 173.173C7.86344 172.89 7.85842 172.7 7.76074 172.607Z" fill="white"/>
<path d="M13.7671 129.498C13.7671 129.498 13.7646 129.403 13.8597 129.4C13.9474 129.112 13.9524 129.303 13.7671 129.498Z" fill="white"/>
<path d="M10.2161 142.925C10.3087 142.827 10.4941 142.632 10.4916 142.536C10.4966 142.727 10.5016 142.917 10.2161 142.925Z" fill="white"/>
<path d="M10.5693 141.868C10.672 142.151 10.5818 142.343 10.4917 142.536C10.4867 142.346 10.4791 142.06 10.5693 141.868Z" fill="white"/>
<path d="M8.17232 188.215L8.17483 188.31L8.07966 188.313L8.17232 188.215Z" fill="white"/>
<path d="M8.08199 188.408L7.99183 188.601C7.98933 188.506 7.98682 188.411 8.08199 188.408Z" fill="white"/>
<path d="M7.90401 188.889L7.99165 188.601C7.99416 188.696 7.99667 188.791 7.90401 188.889Z" fill="white"/>
<path d="M7.94397 183.174C7.9515 183.459 8.34472 183.925 8.25959 184.308L8.06925 184.313C8.34974 184.116 7.57082 183.469 7.94397 183.174Z" fill="white"/>
<path d="M5.52705 178.19L5.64731 179.139C5.45195 178.954 5.16143 178.771 5.07629 179.154C4.57034 178.025 5.56218 179.522 5.52705 178.19Z" fill="white"/>
<path d="M5.35157 175.147C5.27146 175.721 5.06606 175.155 4.9709 175.157C5.1512 174.771 5.14869 174.676 5.35157 175.147Z" fill="white"/>
<path d="M6.85822 152.822L6.38237 152.835C6.4675 152.452 6.57522 152.925 6.85822 152.822Z" fill="white"/>
<path d="M9.80313 148.935L10.1012 149.404L9.62785 149.511L9.80313 148.935Z" fill="white"/>
<path d="M6.77275 145.968L6.6826 146.161L6.95055 145.487L6.77275 145.968Z" fill="white"/>
<path d="M14.6628 109.285L15.2413 109.555C14.9608 109.753 14.3873 109.673 14.6628 109.285Z" fill="white"/>
<path d="M20.3547 93.9919C20.1568 93.7114 20.1443 93.2355 20.52 93.0351C20.3422 93.516 20.4474 93.8942 20.3547 93.9919Z" fill="white"/>
<path d="M41.1973 50.1104L40.8216 50.3108L41.2849 49.8224L41.1973 50.1104Z" fill="white"/>
<path d="M86.5237 13.7741L84.7055 13.4411L86.3655 4.15945L77.1014 3.16559L77.2416 1.25719L88.6094 2.57653L86.5237 13.7741Z" fill="white"/>
</g>
<defs>
<clipPath id="clip0">
<rect width="188.691" height="88.2526" fill="white" transform="matrix(0.0263515 0.999653 0.999653 -0.0263515 0.344727 3.28418)"/>
</clipPath>
</defs>
</svg>
