<svg width="117" height="144" viewBox="0 0 117 144" fill="none" xmlns="http://www.w3.org/2000/svg">
<g clip-path="url(#clip0)">
<path d="M87.2533 0.950097C87.4413 0.797593 87.8874 0.809675 87.8286 1.04447L87.1121 1.314L87.2533 0.950097Z" fill="white"/>
<path d="M88.7663 2.27821C88.4961 2.5598 87.9087 2.9116 87.2277 2.84064C87.9208 2.46543 87.5803 2.42995 88.4024 2.13704C88.4613 1.90225 88.0974 1.76107 87.8861 1.80788C88.074 1.65538 87.7102 1.5142 88.1095 1.3149C88.7082 1.51496 88.8018 1.93773 88.3436 2.37182C88.4727 2.45411 88.6606 2.30161 88.7663 2.27821Z" fill="white"/>
<path d="M90.2779 38.643C90.2545 38.5373 90.3602 38.5139 90.4659 38.4905C90.3602 38.5139 90.2779 38.643 90.2779 38.643Z" fill="white"/>
<path d="M90.9457 24.6358L91.145 25.0352C90.9102 24.9763 90.9925 24.8472 90.9457 24.6358Z" fill="white"/>
<path d="M87.3667 5.47063C87.3433 5.36494 87.449 5.34154 87.5313 5.21243C87.5547 5.31813 87.449 5.34153 87.4724 5.44723L87.3667 5.47063Z" fill="white"/>
<path d="M91.5843 18.5072L91.5609 18.4015C91.6666 18.3781 91.7723 18.3547 91.878 18.3313L91.5843 18.5072Z" fill="white"/>
<path d="M91.5291 13.7519C91.5526 13.8575 90.895 13.8923 90.6836 13.9391C90.895 13.8923 91.083 13.7398 91.083 13.7398C91.1887 13.7164 91.2944 13.693 91.5291 13.7519Z" fill="white"/>
<path d="M89.8914 6.35348L89.9737 6.22439C89.9737 6.22439 89.9737 6.22439 89.8914 6.35348Z" fill="white"/>
<path d="M91.6524 21.8185C91.7581 21.7951 91.7815 21.9008 91.8872 21.8774C91.7815 21.9008 91.7815 21.9008 91.6524 21.8185Z" fill="white"/>
<path d="M28.5587 138.459C28.6878 138.541 28.8169 138.623 28.8403 138.729L28.5587 138.459Z" fill="white"/>
<path d="M90.7996 45.5127C90.8846 45.3793 90.7996 45.5127 90.7996 45.5127V45.5127Z" fill="white"/>
<path d="M77.7856 83.8742C77.5394 83.2635 76.8577 84.1905 76.5648 83.3684C76.6939 83.4507 77.7274 83.111 77.7856 83.8742Z" fill="white"/>
<path d="M88.3511 55.479C88.222 55.3967 88.222 55.3967 88.0929 55.3144C88.0929 55.3144 88.1986 55.291 88.3511 55.479Z" fill="white"/>
<path d="M86.4698 59C86.4932 59.1057 86.5166 59.2114 86.4109 59.2348C86.4109 59.2348 86.4109 59.2348 86.3875 59.1291C86.5166 59.2114 86.4932 59.1057 86.4698 59Z" fill="white"/>
<path d="M85.3394 62.9092C85.3394 62.9092 85.316 62.8035 85.2103 62.8269L85.2926 62.6978L85.3394 62.9092Z" fill="white"/>
<path d="M40.392 125.305C40.4388 125.517 40.5913 125.705 40.6147 125.811C40.3332 125.54 39.8281 125.763 40.392 125.305Z" fill="white"/>
<path d="M87.7076 5.50612C87.6019 5.52952 87.4962 5.55293 87.4139 5.68203L87.3905 5.57633C87.5785 5.42383 87.6841 5.40043 87.7076 5.50612Z" fill="white"/>
<path d="M81.7741 57.8226L81.6797 58.3979C81.6563 58.2922 81.7152 58.0574 81.7741 57.8226Z" fill="white"/>
<path d="M81.1023 60.2996C81.2548 60.4876 81.3839 60.5699 81.4307 60.7812C81.325 60.8047 81.325 60.8047 81.2193 60.8281L81.1023 60.2996Z" fill="white"/>
<path d="M36.5514 127.487C37.0096 127.053 37.3026 127.875 37.6898 128.122C38.4063 127.852 37.5494 127.487 37.4324 126.959C37.9609 126.842 38.6886 127.124 38.8532 126.866C38.8298 126.76 38.8064 126.655 38.6773 126.572C39.4874 126.726 39.6995 125.681 40.6387 125.916C40.6153 125.811 40.6153 125.811 40.5919 125.705C40.7912 126.104 41.0727 126.375 41.2252 126.563C41.4132 126.41 41.9062 126.634 41.6835 126.128C41.6012 126.258 41.4487 126.07 41.2139 126.011L41.531 125.941C41.2615 125.224 41.1082 126.034 40.6741 125.576C41.2849 125.33 42.1772 125.354 42.3184 124.99C41.8609 124.426 41.4374 125.518 41.3559 124.649L41.0501 125.271C40.6636 124.026 40.8032 125.658 40.2876 124.331C40.7813 123.556 41.192 123.909 41.7092 123.24C42.0731 123.381 42.0376 123.722 42.5072 123.84C43.8812 123.535 41.9568 121.855 43.1896 121.914C43.6826 122.138 44.3749 122.761 44.5281 121.951L43.777 121.563C44.2941 120.894 44.9977 122.068 45.2099 121.024C44.846 120.882 44.5991 121.27 44.5757 121.164C44.4942 120.295 45.151 121.258 45.5269 120.953L45.0694 120.389C45.7157 119.803 46.8783 119.545 47.6302 118.935C47.3954 118.877 47.1606 118.818 47.1961 118.477C48.2885 117.903 48.9589 116.424 49.3824 115.332L50.2982 115.462C50.3805 115.333 50.228 115.145 49.9932 115.086C50.111 114.616 50.2748 115.356 50.6153 115.392C50.8032 115.239 50.6039 114.84 50.2869 114.91C51.2381 114.699 52.7299 113.926 52.7072 112.822L52.4958 112.869C52.7782 112.141 53.9868 113.093 53.9287 112.33L53.7173 112.376C54.4345 111.109 55.9029 110.229 55.8923 108.679C56.7492 109.044 56.4804 107.33 57.5132 107.988C57.514 106.99 57.1735 106.954 57.5736 105.757C57.7382 105.499 58.4893 105.887 58.8887 105.688L58.3489 105.253L59.2413 105.277L58.7604 104.607L59.1597 104.408C59.0774 104.537 59.2533 104.831 59.3824 104.913C59.9932 104.667 59.8414 103.481 59.5833 103.316L60.8636 102.589C60.6054 102.425 60.4175 102.577 60.2061 102.624C61.1573 102.413 59.7486 102.06 60.6175 101.979C60.6643 102.19 60.9814 102.12 61.1105 102.202C60.9935 101.674 61.4283 101.134 61.8866 100.7L61.417 100.582C61.8873 99.7017 62.7216 98.9626 63.4033 98.0355C63.3912 98.4817 64.0367 98.8932 64.3069 98.6116L63.7438 98.071C64.2133 98.1888 63.7317 98.5172 64.4949 98.4591C64.6361 98.0952 64.014 97.7894 63.697 97.8596L64.1786 97.5312C64.0261 97.3433 63.8147 97.3901 63.5799 97.3312C64.0495 97.449 63.4516 96.2509 64.2617 96.4041L64.1092 96.2161C64.6852 95.3125 65.1668 94.9841 65.6606 94.2095C66.1769 94.5386 66.3181 94.1748 66.87 94.1634C67.0466 93.4591 67.0708 92.5667 67.4823 91.9213C68.0696 91.5694 67.9518 92.039 68.5037 92.0277C68.093 91.6751 68.5044 91.0297 67.976 91.1467C68.5754 90.3487 68.6343 90.1139 69.6799 89.328C69.8324 89.516 69.7735 89.7508 70.0083 89.8097C70.1963 89.6572 70.1027 89.2344 69.8679 89.1755L69.7622 89.1989C71.254 88.4251 69.8588 85.6296 71.4442 85.2785L71.3385 85.3019L72.4075 84.6217C72.5253 84.1521 71.8791 84.7387 71.762 84.2103C73.1715 83.5655 72.597 82.4731 73.5603 81.8163C72.4694 80.3948 74.9124 79.4103 74.3734 77.9774L74.655 78.2477C75.0778 78.1541 74.5614 77.8249 74.6203 77.5902C74.8785 77.7547 74.8196 77.9895 75.031 77.9427C76.371 75.9829 76.4669 73.4116 76.95 71.0871C77.209 70.2536 79.0163 71.4057 78.4773 69.9728L77.714 70.0309C79.0888 68.7286 78.9846 66.756 80.1246 65.3948C79.9132 65.4416 79.7841 65.3593 79.7018 65.4884C79.3734 65.0068 80.0785 64.1854 80.4424 64.3266C80.5013 64.0918 80.0785 64.1854 79.9026 63.8917C79.7033 63.4923 80.8659 63.2349 80.3496 62.9058C80.2205 62.8235 80.1382 62.9526 80.1382 62.9526C80.4318 62.7767 80.456 61.8843 80.8901 62.3426C80.8554 61.685 81.5484 61.3098 81.3023 60.6991C82.0421 60.5352 81.2796 59.5953 82.1954 59.7252C81.2562 59.4896 81.7855 58.3746 82.2905 58.1519C81.9734 58.2221 82.0912 57.7525 81.645 57.7404C81.7628 57.2709 82.0331 56.9893 82.5261 57.2127C81.6111 56.0848 83.8774 55.8048 82.5865 54.9819C83.4328 53.7966 84.0677 52.6582 84.5735 51.4374C83.6577 51.3076 84.1968 52.7404 83.1285 52.4226C83.7868 51.3898 84.7969 50.9444 84.7509 49.735C84.6807 49.4179 84.3281 49.8286 84.1167 49.8754C84.7751 48.8427 84.5176 47.6801 85.1993 46.753C85.0936 46.7764 84.9879 46.7998 84.9057 46.9289C84.9645 46.6941 84.8943 46.377 85.2582 46.5182L85.0702 46.6707C85.61 47.1055 86.5031 46.1317 86.8436 46.1671C85.5285 46.2366 86.7153 45.0868 85.0008 45.3556C85.0831 45.2265 85.3767 45.0506 85.6349 45.2152C85.5881 45.0038 85.459 44.9215 85.0363 45.0151C85.4477 44.3696 85.835 44.6165 85.9294 44.0412C85.6946 43.9823 85.6123 44.1114 85.4009 44.1582C85.906 43.9355 86.3876 43.6071 86.2706 43.0787C86.1649 43.1021 86.0358 43.0198 85.9535 43.1489C86.1891 42.2097 87.2815 41.6352 87.0474 40.5783C86.0962 40.7889 86.8481 40.1789 86.0381 40.0257L86.3672 39.5093L86.7545 39.7562C86.7666 39.31 87.4596 38.9348 87.2369 38.4297L86.861 38.7347L87.0965 37.7956L87.5774 38.4652C88.0357 38.0311 88.6223 38.6773 88.4584 37.9375C88.3761 38.0666 88.5762 37.4679 88.0598 37.1388C88.3535 36.9629 88.6238 36.6813 88.4245 36.2819C88.1663 36.1173 87.5321 36.2578 87.403 36.1755C88.1429 36.0116 87.6975 35.0015 88.4373 34.8377C88.2259 34.8845 87.7797 34.8724 87.7797 34.8724L88.3082 34.7554C88.1323 34.4617 88.0266 34.4852 87.6861 34.4497C87.6514 33.7921 88.6487 34.7909 88.3324 33.8631C88.2267 33.8865 88.2267 33.8865 88.1444 34.0156C87.9572 33.17 88.6857 32.4543 88.3928 31.6322C87.5593 31.3733 88.087 32.2543 87.4649 31.9485C87.5593 31.3733 87.8885 30.8569 88.1119 30.3639C88.312 29.7652 88.5355 29.2723 88.4184 28.7438L88.4652 28.9552C89.6747 28.9091 87.9375 28.0742 88.5015 27.6167C88.4192 27.7458 87.8673 27.7571 87.973 27.7337C87.8092 26.9938 88.3029 26.2193 88.7265 25.1276L88.4328 25.3035C88.2335 24.9041 88.3044 24.2232 88.1874 23.6947C88.4811 23.5188 88.4343 23.3074 88.9039 23.4252C87.2377 21.9093 89.7396 20.6901 88.355 19.4444C88.3784 19.5501 88.1082 19.8317 88.0848 19.726L88.4026 18.6577C88.8722 18.7755 88.6608 18.8223 89.1538 19.0458C89.4474 18.8699 89.7177 18.5883 89.6709 18.3769C89.3417 18.8933 88.8843 18.3293 88.6261 18.1648C88.7552 18.2471 88.9431 18.0946 89.0722 18.1768C88.1686 17.6008 90.0469 18.0719 89.4369 17.32L89.2255 17.3668C89.3901 17.1086 89.6603 16.827 89.5901 16.5099C89.0149 16.4156 89.3199 16.7915 88.8971 16.8851C88.9092 16.439 89.9193 15.9935 89.3795 15.5587C89.1915 15.7112 89.2617 16.0283 89.0737 16.1808C88.3226 15.7927 88.534 15.7459 88.4638 15.4289L88.0885 14.7358L88.241 14.9238C89.7562 14.2557 88.4298 13.7733 89.3697 13.0108C88.4298 13.7733 88.8412 13.1278 88.2071 13.2682C88.0546 13.0802 87.773 12.8099 87.585 12.9624C88.0667 12.634 87.1275 12.3985 87.9028 11.8942C87.668 11.8353 87.8326 11.5771 87.3042 11.6941C87.4219 11.2246 87.668 11.8353 87.9851 11.7651C88.7136 11.0494 87.0822 10.191 87.9519 9.11148C88.3165 8.25462 88.9273 8.0085 89.1862 7.17504C88.799 6.92818 88.4698 7.44456 88.4698 7.44456C88.1648 7.06859 88.0946 6.75152 88.3181 6.25854C88.1301 6.41104 88.001 6.32875 87.7428 6.16418C87.7783 5.8237 88.4592 5.89466 88.1308 5.413C87.9194 5.45981 87.5201 5.65912 87.3321 5.81162C87.4733 5.44773 87.8024 4.93135 87.9436 4.56747C87.6031 4.53199 87.462 4.89587 87.1683 5.07176C87.2861 4.60219 87.357 3.92123 87.9678 3.67512L88.2494 3.94539C88.2026 3.73401 87.6975 3.95672 87.6152 4.08581C87.157 4.51991 87.8379 4.59087 88.0727 4.64975L88.2139 4.28587C89.4701 4.45121 88.1542 5.5187 88.2713 6.04717L89.1991 5.73084L88.5762 6.42312C88.811 6.482 89.3863 6.57638 89.4218 6.23589C89.9382 6.56505 89.1749 6.62318 89.6913 6.95234C89.797 6.92894 89.797 6.92894 89.797 6.92894L89.5501 7.31621C89.7381 7.16372 90.2077 7.28149 90.0552 7.09351C90.6418 7.73975 89.5494 8.31425 90.1714 8.62001L90.2771 8.59661C90.065 9.64145 89.643 8.73702 88.9379 9.5584L90.5814 9.97061L89.9472 10.111C89.9706 10.2167 90.0174 10.4281 90.3345 10.3579C89.8763 10.792 89.994 10.3224 89.5947 10.5217C90.2401 10.9332 89.347 11.907 90.4742 11.9901C89.9691 12.2128 90.0401 11.5318 89.7109 12.0482C90.8381 12.1313 89.5109 12.6469 90.0506 13.0817C90.6848 12.9413 90.2507 12.4831 90.7905 12.9179C89.8627 13.2342 91.1068 13.8457 90.8599 14.233C90.0967 14.2911 90.601 15.0665 90.3186 15.7942C90.6357 15.724 90.8109 17.0157 91.057 17.6265L91.1627 17.6031C90.4228 17.7669 90.5632 18.4011 90.3398 18.894C90.786 18.9061 90.9739 18.7536 91.2442 18.472L91.2321 18.9182C90.9151 18.9884 90.8328 19.1175 90.7973 19.458L91.4314 19.3176C91.4428 19.8694 90.6908 20.4794 91.1951 21.2547C90.6433 21.2661 89.6339 20.7135 89.2459 21.4646C89.5863 21.5001 90.0325 21.5122 90.2205 21.3597C90.2439 21.4654 89.9502 21.6413 90.0793 21.7236L90.561 21.3952C90.9369 21.0902 90.3617 20.9958 90.4085 21.2072C90.8547 21.2193 90.6667 21.3718 91.0071 21.4072C91.0894 21.2782 90.8547 21.2193 91.0426 21.0668C91.1128 21.3839 91.4178 21.7598 91.676 21.9244C91.4412 21.8655 91.1242 21.9357 91.0653 22.1705C91.0766 22.7224 91.5583 22.394 91.8399 22.6642C91.5462 22.8401 91.8512 23.2161 91.1702 23.1451C91.217 23.3565 91.4284 23.3097 91.6632 23.3686C91.3929 23.6502 91.5213 24.7305 90.8992 24.4248L90.8758 24.3191C90.1941 25.2461 91.1091 26.374 90.8735 27.3132L91.1083 27.3721C90.8026 27.9941 90.943 28.6283 90.4847 29.0624C90.5315 29.2738 90.8131 29.544 91.1302 29.4738C90.9067 29.9668 90.6719 29.9079 91.0472 30.601C91.5054 30.1669 91.411 30.7421 91.3997 30.1903C91.5401 30.8244 91.904 30.9656 91.2578 31.5522C91.7862 31.4352 91.9267 32.0693 91.7621 32.3275L91.4337 31.8459C91.2925 32.2097 91.3393 32.4211 91.4095 32.7382L92.1728 32.6801C92.4302 33.8427 90.0461 34.5923 91.3838 35.6266C90.8788 35.8493 91.1143 34.9102 90.5036 35.1563C90.5149 35.7082 91.442 36.3899 91.4888 36.6013C91.7583 37.3177 90.3964 37.1758 90.5602 37.9156C90.302 37.751 89.5976 37.5744 89.2919 38.1964C89.3032 38.7483 90.2424 38.9839 90.5126 38.7023C90.5949 38.5732 90.4658 38.4909 90.3601 38.5143C90.4424 38.3852 90.607 38.127 90.8886 38.3973L90.6772 38.4441C90.8531 38.7377 90.8056 39.5244 91.2049 39.3251C90.9581 39.7124 90.7822 39.4187 90.7119 39.1016C90.9815 39.8181 90.6289 40.2288 90.687 40.992C90.5579 40.9097 90.2997 40.7451 90.3231 40.8508C90.4515 41.9312 89.7358 41.2026 89.5591 41.907C89.8875 42.3887 90.5572 41.9078 90.04 42.5766C90.2627 43.0817 90.7444 42.7533 90.9324 42.6008C90.2862 43.1874 90.9784 43.8102 91.072 44.233L91.3423 43.9514C91.1543 44.1039 91.2011 44.3153 91.1189 44.4444L90.6259 44.2209C90.6727 44.4323 90.6138 44.6671 90.8252 44.6203C90.4258 44.8196 89.9917 44.3613 89.5101 44.6897C89.686 44.9834 89.122 45.4409 89.7207 45.641C89.6392 44.772 90.4251 45.8176 90.6017 45.1133C90.5194 45.2423 90.4371 45.3714 90.4839 45.5828C90.613 45.6651 90.5896 45.5594 90.6953 45.536C91.1173 46.4404 89.8498 45.7232 89.7199 46.639C90.1427 46.5454 90.342 46.9447 90.2597 47.0738C90.4009 46.71 89.7667 46.8504 89.4731 47.0263C89.7192 47.637 89.1439 47.5427 89.1084 47.8831L89.0382 47.5661C88.6155 47.6597 88.6623 47.8711 88.4154 48.2583C88.6502 48.3172 88.6857 47.9768 88.8148 48.059C88.0983 48.3286 89.2836 49.1748 88.7196 49.6323C88.8955 49.926 89.424 49.809 89.5999 50.1027C88.9537 50.6893 89.9985 50.9014 89.458 51.4646C88.9416 51.1354 89.1764 51.1943 88.4833 51.5695L89.1416 50.5368L88.1549 51.0879C88.1904 50.7474 88.6721 50.419 88.6253 50.2076C88.1202 50.4303 88.2493 50.5126 87.8386 50.16C88.5309 50.7829 87.2392 50.958 87.591 51.5454L88.8706 51.8164C89.1869 52.7442 87.9186 53.0251 87.9647 54.2345L87.8711 53.8117C87.3192 53.823 87.671 54.4104 87.4007 54.692C87.8469 54.7041 87.9171 55.0211 88.1753 55.1857C87.8348 55.1502 88.0221 55.9958 87.212 55.8425L87.6695 56.4064C87.6453 57.2988 86.26 57.0512 86.1068 57.8612C86.6352 57.7442 86.8345 58.1436 87.2928 57.7095C87.2339 57.9443 87.1984 58.2848 86.9402 58.1202C87.0927 58.3082 86.1883 58.7302 86.4699 59.0004C86.2585 59.0472 85.7889 58.9295 85.7534 59.27C85.8825 59.3522 85.9882 59.3288 85.9882 59.3288C85.7534 59.27 85.6357 59.7395 85.2016 59.2813C86.2457 60.4914 84.4836 61.5469 85.3752 62.5691C85.0461 63.0854 84.6346 63.7309 84.5168 64.2005C84.6225 64.1771 84.7516 64.2594 84.7282 64.1537C84.9154 64.9992 83.4131 64.2231 83.6237 65.1744C84.1046 65.844 84.1054 64.846 84.3047 65.2453C85.6545 65.8334 83.8344 66.1256 84.3621 67.0066L84.4444 66.8775C84.7962 67.4649 83.6336 67.7223 83.4569 68.4267C83.4569 68.4267 83.5626 68.4033 83.6917 68.4856C82.8461 68.6728 82.2467 69.4708 81.8119 70.0105C82.3637 69.9992 82.2112 69.8112 82.7276 70.1404C82.563 70.3986 81.9764 69.7523 81.5416 70.2921C81.7175 70.5858 81.8345 71.1143 82.3275 71.3377L82.551 70.8447C83.1141 71.3853 82.2686 71.5725 82.2331 71.913L82.5736 71.9485C82.1856 72.6996 81.3521 72.4407 81.1166 73.3798L80.9641 73.1919C80.0128 73.4025 81.2102 73.8026 80.4703 73.9664L81.2449 74.4602C80.9746 74.7418 79.9879 75.2929 79.6354 75.7036C80.3986 75.6454 80.9391 75.0822 81.4442 74.8595C81.303 75.2234 80.8916 75.8689 80.4454 75.8568C80.5277 75.7277 80.8448 75.6575 80.8214 75.5518C80.0815 75.7156 79.4942 76.0674 79.2941 76.6661C80.8553 77.2074 79.0344 78.4976 79.9026 79.4141C78.857 80.2 79.079 81.7031 78.3618 82.9707C77.4702 81.9485 78.1149 83.3579 76.9764 82.723C76.8119 82.9812 76.7296 83.1103 76.753 83.216L77.0338 84.4843C77.2331 84.8837 77.4332 84.285 77.6914 84.4496C77.5147 85.1539 78.0432 85.0369 78.1602 85.5654C77.7729 85.3185 77.4792 85.4944 77.3615 85.964L77.0685 85.1419C75.9761 85.7164 77.6899 86.4457 76.5974 87.0202L77.1259 86.9032C76.6443 87.2316 76.1852 88.6637 75.0581 88.5806C75.2106 88.7686 75.3865 89.0623 75.5745 88.9098C75.1744 90.1071 73.213 90.7632 73.3648 91.9492L73.7053 91.9847C73.5173 92.1372 72.942 92.0428 73.1413 92.4422C73.2704 92.5245 73.4818 92.4777 73.3995 92.6068C73.1881 92.6536 72.5774 92.8997 72.6476 93.2167L73.0937 93.2288C72.8227 94.5085 71.3551 94.3899 70.6266 95.1056C71.4012 95.5993 71.1656 96.5385 71.0713 97.1138L71.2003 97.1961C70.4831 98.4636 69.2382 98.8501 68.216 99.7417C68.6026 100.987 66.993 102.23 66.7688 103.721C66.722 103.51 66.1233 103.31 65.9354 103.462C65.8999 103.803 64.9018 103.802 65.653 104.19L65.7353 104.061C66.3219 104.707 65.7579 105.164 65.5111 105.552L64.5017 104.999C65.0521 106.984 62.0225 107.322 62.7963 108.814C62.3735 108.907 62.1032 109.189 61.7862 109.259L62.3026 109.588C61.9145 110.34 61.6676 110.727 60.9625 111.548L61.4321 111.666C61.1029 112.182 59.5538 111.195 59.2012 111.606L59.5296 112.087C58.8245 112.909 58.7883 114.247 57.52 114.528C57.6491 114.61 57.9073 114.775 57.9896 114.646C57.7427 115.033 57.178 116.489 56.4155 115.549C56.9787 116.089 55.7338 116.476 55.0996 116.616L55.616 116.945C54.7003 116.816 54.5478 116.628 53.9604 116.979C53.8781 117.108 54.2654 117.355 54.2186 117.144C54.1242 117.719 53.5376 117.073 53.361 117.777L53.8306 117.895C53.478 118.306 53.3255 118.118 52.8793 118.106C52.4566 118.199 52.3033 119.009 52.6083 119.385C52.3501 119.221 51.7749 119.126 51.7394 119.467C51.8919 119.655 51.9976 119.631 52.1033 119.608C51.762 120.571 50.6704 120.147 50.7285 120.91C50.881 121.098 50.9044 121.204 50.9044 121.204C51.3392 120.664 51.7975 120.23 51.6918 120.254C52.1025 120.606 51.7733 121.122 52.6891 121.252C52.0315 121.287 50.7987 121.227 50.5986 121.826C50.622 121.932 50.622 121.932 50.6455 122.037L50.7511 122.014C50.6689 122.143 50.5866 122.272 50.3518 122.213C50.2929 122.448 50.3163 122.554 50.1283 122.706C50.4333 123.082 49.8226 123.328 49.658 123.587C49.2239 123.128 49.0827 123.492 48.9423 122.858C48.9657 122.964 49.048 122.835 49.1537 122.811L49.2594 122.788C49.4474 122.635 49.6353 122.483 49.8233 122.33C49.4828 122.295 49.1424 122.259 49.1303 122.706C48.7664 122.564 48.3791 122.318 48.1443 122.259C48.4606 123.186 48.3074 123.997 48.6358 124.478C47.7314 124.9 47.0262 125.722 45.8289 125.321C45.5118 125.392 45.8168 125.768 45.8636 125.979C46.075 125.932 46.1573 125.803 46.2864 125.885C45.7579 126.002 45.1585 126.8 44.513 126.389C44.3364 127.093 45.2408 126.671 44.5712 127.152L44.8059 127.211C44.4874 129.277 41.4359 127.514 41.1052 130.026C41.1875 129.897 41.1641 129.791 41.1407 129.686C40.0355 131.705 37.3463 132.078 36.4993 134.261C36.1701 134.778 35.7828 134.531 35.3133 134.413L35.6651 135.001L34.6202 134.788C33.5399 134.917 34.4541 137.043 32.8574 136.842L32.6581 136.443C32.3879 136.724 31.5657 137.017 31.8707 137.393C31.7416 137.311 31.4834 137.146 31.5302 137.358L31.7061 137.651L30.5201 137.803C30.003 138.472 31.4117 138.825 30.5775 139.564C30.1547 139.658 28.9808 139.363 29.0397 139.129C29.122 139 29.2865 138.741 29.1107 138.448L28.6879 138.541C28.0779 137.789 27.2565 137.084 27.5743 136.016L28.4901 136.146L28.3731 135.617L27.8914 135.946C27.8801 135.394 28.2674 135.641 28.6079 135.676C28.4554 135.488 28.5142 135.253 28.4674 135.042L29.5591 135.466C29.3598 135.066 28.8902 134.948 29.0314 134.585C29.5244 134.808 29.3477 135.512 29.8762 135.395C29.8648 134.844 29.5832 134.573 30.0528 134.691C29.9003 134.503 29.7712 134.421 29.6421 134.338C30.0883 134.351 30.4409 133.94 30.8516 134.292C30.7111 133.658 31.8383 133.741 31.2283 132.989C31.4865 133.154 32.1674 133.225 32.3554 133.072C31.2404 132.543 33.1896 132.333 32.3214 131.417C33.2251 131.993 33.7543 130.878 34.6467 130.902C34.5176 130.82 34.3885 130.737 34.4119 130.843C34.6821 130.562 34.6119 130.244 34.6474 129.904C35.234 130.55 35.8448 130.304 36.4434 130.504C36.2328 129.553 35.5398 129.928 35.1646 129.235C35.622 129.799 36.2683 129.212 36.491 129.717C36.4563 129.06 36.6322 129.354 36.257 128.661C36.9726 129.389 36.6797 128.567 37.3018 128.873C37.3494 128.086 36.7741 127.992 37.4083 127.851C37.2089 127.452 36.5514 127.487 36.5514 127.487ZM47.9118 119.206C47.8061 119.229 47.7238 119.358 47.7238 119.358C47.7238 119.358 47.8061 119.229 47.9118 119.206ZM48.7226 118.361C48.6403 118.49 48.558 118.619 48.3701 118.772C48.5225 118.96 48.6517 119.042 48.7573 119.018C48.6048 118.83 48.7694 118.572 48.7226 118.361ZM50.0928 123.047C50.3042 123 50.2574 122.789 50.1283 122.706C50.0226 122.73 49.9403 122.859 49.8346 122.882C49.8346 122.882 49.8346 122.882 49.7289 122.906C49.858 122.988 49.9871 123.07 50.0928 123.047Z" fill="white"/>
<path d="M49.2588 122.788C49.2588 122.788 49.1531 122.811 49.2588 122.788C49.1297 122.705 49.1297 122.705 49.1063 122.6C49.212 122.576 49.2354 122.682 49.2588 122.788Z" fill="white"/>
<path d="M58.3255 105.147L58.4546 105.229L58.3489 105.252L58.3255 105.147Z" fill="white"/>
<path d="M88.7905 17.9067L88.6614 17.8244C88.6614 17.8244 88.6614 17.8244 88.7905 17.9067Z" fill="white"/>
<path d="M88.6045 15.0645L88.4052 14.6651C88.452 14.8765 88.4754 14.9822 88.6045 15.0645Z" fill="white"/>
<path d="M85.14 46.9873C85.14 46.9873 85.0343 47.0107 85.14 46.9873C84.9754 47.2455 84.952 47.1398 85.14 46.9873Z" fill="white"/>
<path d="M88.1656 37.1153C88.0833 37.2444 87.8719 37.2912 87.7896 37.4203C87.7428 37.2089 87.8251 37.0798 88.1656 37.1153Z" fill="white"/>
<path d="M87.7771 37.8662C87.7303 37.6548 87.7069 37.5491 87.7892 37.42C87.8126 37.5257 87.8594 37.7371 87.7771 37.8662Z" fill="white"/>
<path d="M87.0755 3.65085C87.1578 3.52176 87.1578 3.52176 87.0755 3.65085V3.65085Z" fill="white"/>
<path d="M87.1575 3.52146C87.2398 3.39237 87.2632 3.49806 87.1575 3.52146V3.52146Z" fill="white"/>
<path d="M87.4044 3.13431L87.2398 3.39251C87.2164 3.28681 87.193 3.18112 87.4044 3.13431Z" fill="white"/>
<path d="M87.6592 7.29096C87.6124 7.07957 87.1194 6.8561 87.2606 6.49222L87.472 6.44542C87.1783 6.62132 88.0586 7.09165 87.6592 7.29096Z" fill="white"/>
<path d="M90.6391 10.7335L90.4753 9.9937C90.7335 10.1583 91.0974 10.2995 91.1095 9.85328C91.8719 10.7932 90.5342 9.75891 90.6391 10.7335Z" fill="white"/>
<path d="M91.154 13.0585C91.2951 12.6946 91.4944 13.094 91.6001 13.0706C91.4122 13.2231 91.4356 13.3288 91.154 13.0585Z" fill="white"/>
<path d="M91.0712 29.7082L91.6231 29.6969C91.5642 29.9317 91.3883 29.638 91.0712 29.7082Z" fill="white"/>
<path d="M87.9456 32.6181L87.6406 32.2421L88.1925 32.2308L87.9456 32.6181Z" fill="white"/>
<path d="M91.7484 34.7693L91.8307 34.6402L91.6072 35.1332L91.7484 34.7693Z" fill="white"/>
<path d="M86.0089 62.4283L85.3869 62.1225C85.5748 61.97 86.3849 62.1233 86.0089 62.4283Z" fill="white"/>
<path d="M81.3748 73.5446C81.6564 73.8149 81.75 74.2376 81.3038 74.2255C81.3627 73.9908 81.1868 73.6971 81.3748 73.5446Z" fill="white"/>
<path d="M64.5834 105.868L64.9005 105.798L64.5245 106.103L64.5834 105.868Z" fill="white"/>
<path d="M29.0013 126.94L31.1967 127.341L29.0753 137.789L39.6769 139.101L39.3817 141.273L26.5024 139.69L29.0013 126.94Z" fill="white"/>
</g>
<defs>
<clipPath id="clip0">
<rect width="126.655" height="91.2566" fill="white" transform="matrix(-0.216191 -0.976351 -0.976351 0.216191 116.538 124.188)"/>
</clipPath>
</defs>
</svg>
