<svg width="32" height="32" viewBox="0 0 32 32" fill="none" xmlns="http://www.w3.org/2000/svg">
<g clip-path="url(#clip0)">
<path d="M16 3.02067e-05H16C7.16344 3.05929e-05 0 7.16347 0 16C3.86259e-07 24.8366 7.16344 32 16 32C24.8366 32 32 24.8366 32 16V15.9999C31.9904 7.16727 24.8324 0.00946667 15.9999 0L16 3.02067e-05ZM25.2653 14.9507V14.96L23.7653 19.9667V19.9787C23.156 21.9467 22.1133 23.288 20.0427 23.288C15.1013 23.288 15.3827 23.8574 9.61067 20.94C9.35733 20.8067 9.10667 20.6854 8.85467 20.556C8.74357 20.4984 8.67369 20.3838 8.67333 20.2587V14.1427C8.67333 13.9586 8.82257 13.8094 9.00667 13.8094H11.5413C12.0526 13.809 12.5319 13.5604 12.8267 13.1427L16.6667 7.2347C17.0997 6.62636 17.9438 6.48421 18.5521 6.9172C18.6502 6.98698 18.7385 7.06954 18.8147 7.1627C19.0847 7.49359 19.1799 7.93381 19.0707 8.3467L18.3773 10.964C18.2527 11.4337 18.3543 11.9346 18.652 12.3187C18.9508 12.7031 19.4104 12.928 19.8973 12.928H23.76C24.626 12.9254 25.3301 13.6253 25.3327 14.4913C25.3332 14.6469 25.3105 14.8018 25.2653 14.9507L25.2653 14.9507Z" fill="url(#paint0_linear)"/>
</g>
<defs>
<linearGradient id="paint0_linear" x1="9.33333" y1="2.70705e-07" x2="25" y2="30.6667" gradientUnits="userSpaceOnUse">
<stop stop-color="#5051DB"/>
<stop offset="1" stop-color="#7E37B6"/>
</linearGradient>
<clipPath id="clip0">
<rect width="32" height="32" fill="white"/>
</clipPath>
</defs>
</svg>
