<svg width="74" height="74" viewBox="0 0 74 74" fill="none" xmlns="http://www.w3.org/2000/svg">
<circle cx="37.0001" cy="37.0001" r="33.2308" fill="#F5F7F9"/>
<path d="M73 37C73 28.1292 69.7248 19.5706 63.8025 12.9662C57.8803 6.36169 49.7281 2.17633 40.9097 1.21293C32.0913 0.249532 23.2277 2.57593 16.0192 7.74587C8.81058 12.9158 3.76462 20.5652 1.84921 29.2268C-0.0661921 37.8884 1.28383 46.9523 5.64032 54.6797C9.99681 62.4071 17.053 68.2539 25.4553 71.0987C33.8577 73.9434 43.0145 73.5858 51.1693 70.0943C59.3242 66.6028 65.9028 60.2233 69.6432 52.1796" stroke="url(#paint0_linear)"/>
<path d="M27.3077 25.1816V48.8187V48.8189C27.3077 49.9385 28.1739 50.8461 29.2424 50.8461C29.5616 50.8461 29.8758 50.7634 30.157 50.6053L51.2099 38.7868C52.1516 38.2578 52.5057 37.0291 52.0009 36.0423C51.8208 35.6905 51.5457 35.4022 51.2099 35.2135L30.1569 23.395C29.2153 22.8658 28.0426 23.2366 27.5375 24.2232C27.3867 24.5179 27.3077 24.8472 27.3078 25.1816L27.3077 25.1816Z" fill="#5152D0"/>
<defs>
<linearGradient id="paint0_linear" x1="17.6154" y1="6.53846" x2="64.6923" y2="59.8462" gradientUnits="userSpaceOnUse">
<stop stop-color="#5152D0"/>
<stop offset="1" stop-color="#4CC0C8"/>
</linearGradient>
</defs>
</svg>
