<svg width="24" height="24" viewBox="0 0 24 24" fill="none" xmlns="http://www.w3.org/2000/svg">
<path d="M1.01023 12.5412C1.18891 8.04926 4.07574 4.11306 8.31149 2.58586C8.42602 2.54516 8.49554 2.42909 8.47722 2.30913L8.22249 0.584386C8.19822 0.391841 8.28193 0.201561 8.44039 0.0891227L8.44039 0.0891228C8.60236 -0.0214352 8.81341 -0.0297658 8.98361 0.0676784L13.7918 2.80337C13.9298 2.88228 14.0232 3.02079 14.0445 3.17813C14.046 3.20091 14.046 3.22377 14.0445 3.24655C14.0442 3.38135 13.9905 3.51056 13.8951 3.606L10.0629 7.45578C9.86365 7.65568 9.53978 7.6565 9.33952 7.45762C9.26148 7.38012 9.21057 7.27956 9.19436 7.17087L8.93349 5.41958C8.91234 5.27961 8.78152 5.18325 8.64129 5.20435C8.61858 5.20777 8.59643 5.21422 8.57543 5.22352L8.57543 5.22352C4.30695 7.10541 2.37501 12.085 4.26032 16.3458C6.14564 20.6065 11.1343 22.535 15.4028 20.6531C18.3583 19.3501 20.3105 16.4788 20.4322 13.256C20.5421 10.4643 19.2531 7.80101 16.9939 6.15179C16.4494 5.70275 16.3728 4.89818 16.8226 4.35473C17.2374 3.85375 17.9629 3.74376 18.5079 4.09926L18.5079 4.09926C21.3314 6.16736 22.9995 9.45394 23 12.9497C23 13.0844 23 13.2203 22.9918 13.3581L22.9918 13.3581C22.8055 19.4185 17.7326 24.1807 11.6612 23.9947C5.58979 23.8088 0.818983 18.7451 1.00527 12.6847C1.00666 12.6396 1.00832 12.5945 1.01027 12.5494L1.01023 12.5412Z" fill="#73798C"/>
<path d="M8.77024 16.8337H9.98493V10.1663H8.77495L7 11.3861V12.532L8.69021 11.3677H8.77024V16.8337Z" fill="#73798C"/>
<path d="M14.4105 17C16.0348 17 17 15.7063 17 13.5023C17 11.2891 16.0207 10 14.4105 10C12.7957 10 11.8164 11.2891 11.8164 13.4931C11.8164 15.7063 12.7815 17 14.4105 17ZM14.4105 16.0112C13.549 16.0112 13.0452 15.1333 13.0452 13.4931C13.0452 11.8667 13.5584 10.9934 14.4105 10.9934C15.2627 10.9934 15.7712 11.862 15.7712 13.4931C15.7712 15.1333 15.2721 16.0112 14.4105 16.0112Z" fill="#73798C"/>
</svg>
