<svg width="72" height="72" viewBox="0 0 72 72" fill="none" xmlns="http://www.w3.org/2000/svg">
<circle cx="36" cy="36" r="36" fill="#F5F7F9"/>
<path d="M32.2288 21H25.1046C24.4945 21 24 21.5058 24 22.1297V49.8703C24 50.4942 24.4945 51 25.1046 51H32.2288C32.8388 51 33.3334 50.4942 33.3334 49.8703V22.1297C33.3334 21.5058 32.8388 21 32.2288 21Z" fill="#73798C"/>
<path d="M46.8955 21H39.7713C39.1613 21 38.6667 21.5058 38.6667 22.1297V49.8703C38.6667 50.4942 39.1613 51 39.7713 51H46.8955C47.5056 51 48.0001 50.4942 48.0001 49.8703V22.1297C48.0001 21.5058 47.5056 21 46.8955 21Z" fill="#73798C"/>
</svg>
