<svg width="32" height="24" viewBox="0 0 32 24" fill="none" xmlns="http://www.w3.org/2000/svg">
<rect width="32" height="24" rx="2" fill="#E3E6EB"/>
<path d="M6.92383 16H8.43555V7.54492H6.92969L4.7207 9.0918V10.5449L6.82422 9.06836H6.92383V16ZM11.6113 16.123C12.168 16.123 12.5488 15.7246 12.5488 15.1973C12.5488 14.6641 12.168 14.2715 11.6113 14.2715C11.0605 14.2715 10.6738 14.6641 10.6738 15.1973C10.6738 15.7246 11.0605 16.123 11.6113 16.123ZM17.1426 16.2109C19.0176 16.2109 20.2773 15.0039 20.2773 13.2402C20.2773 11.582 19.1406 10.4043 17.5352 10.4043C16.7207 10.4043 16.123 10.6914 15.748 11.1953H15.6484L15.8535 8.82227H19.7734V7.54492H14.6816L14.2422 12.4082H15.6133C15.9238 11.8867 16.4688 11.5762 17.166 11.5762C18.1387 11.5762 18.8184 12.2617 18.8184 13.2754C18.8184 14.2832 18.1445 14.9512 17.1543 14.9512C16.2812 14.9512 15.6191 14.4355 15.5254 13.6562H14.1074C14.1777 15.1445 15.3906 16.2109 17.1426 16.2109ZM24.3672 13.791L25.6797 16H27.3203L25.2285 12.7598L27.2969 9.58984H25.6973L24.4316 11.793H24.332L23.0547 9.58984H21.373L23.4648 12.8184L21.3906 16H22.9551L24.2676 13.791H24.3672Z" fill="#73798C"/>
</svg>
