<svg width="20" height="20" viewBox="0 0 20 20" fill="none" xmlns="http://www.w3.org/2000/svg">
<path d="M8.41859 9.21671L17.1686 1.3184C17.6831 0.858107 18.4733 0.902077 18.9336 1.41659C19.1421 1.64965 19.2557 1.95239 19.2519 2.26507V18.0634C19.2602 18.7537 18.7074 19.32 18.0171 19.3283C17.7044 19.3321 17.4016 19.2185 17.1686 19.0101L8.41859 11.1117C7.89529 10.6351 7.85749 9.82441 8.33419 9.30111C8.36099 9.27171 8.38919 9.24351 8.41859 9.21671Z" fill="#73798C"/>
<path d="M5.143 0H0.690401C0.309101 0 0 0.30908 0 0.69035V19.3096C0 19.6909 0.309101 20 0.690401 20H5.143C5.5243 20 5.8334 19.6909 5.8334 19.3096V0.69035C5.8334 0.30908 5.5243 0 5.143 0Z" fill="#73798C"/>
</svg>
