<svg width="20" height="20" viewBox="0 0 20 20" fill="none" xmlns="http://www.w3.org/2000/svg">
<g clip-path="url(#clip0)">
<path d="M10.8334 9.05242L2.08343 1.15409C1.56891 0.693804 0.77868 0.737766 0.318388 1.25228C0.109896 1.48534 -0.00367246 1.78808 9.25395e-05 2.10076V17.8991L9.25027e-05 17.8991C-0.00821921 18.5894 0.544647 19.1557 1.23495 19.164C1.54763 19.1678 1.85037 19.0542 2.08343 18.8458L10.8334 10.9474C11.3567 10.4708 11.3945 9.66013 10.9178 9.13684C10.891 9.1074 10.8629 9.07923 10.8334 9.05242L10.8334 9.05242Z" fill="#73798C"/>
<path d="M19.3097 0H14.8571C14.4758 0 14.1667 0.30908 14.1667 0.69035V19.3096C14.1667 19.6909 14.4758 20 14.8571 20H19.3097C19.691 20 20.0001 19.6909 20.0001 19.3096V0.69035C20.0001 0.30908 19.691 0 19.3097 0Z" fill="#73798C"/>
</g>
<defs>
<clipPath id="clip0">
<rect width="20" height="20" fill="white"/>
</clipPath>
</defs>
</svg>
