<svg width="32" height="32" viewBox="0 0 32 32" fill="none" xmlns="http://www.w3.org/2000/svg">
<path d="M16 3.02067e-05C7.16344 3.05929e-05 0 7.16347 0 16C3.86259e-07 24.8366 7.16344 32 16 32C24.8366 32 32 24.8366 32 16V15.9999C31.9904 7.16727 24.8324 0.00946667 15.9999 0L16 3.02067e-05ZM25.0253 17.7694C24.7282 18.1699 24.2587 18.4059 23.76 18.4054H19.9027C19.4158 18.4054 18.9561 18.6303 18.6573 19.0147C18.3596 19.3987 18.2581 19.8997 18.3827 20.3694L19.076 22.9867C19.1852 23.3996 19.09 23.8398 18.82 24.1707C18.3473 24.7487 17.4955 24.834 16.9175 24.3612C16.8243 24.285 16.7418 24.1967 16.672 24.0987L12.8267 18.1867C12.5319 17.769 12.0526 17.5204 11.5413 17.52H8.99999C8.8159 17.52 8.66666 17.3708 8.66666 17.1867V11.0747C8.66701 10.9496 8.73689 10.835 8.84799 10.7774C9.09999 10.644 9.35066 10.52 9.60399 10.3934C15.376 7.47603 15.0947 8.04537 20.036 8.04537C22.1067 8.04537 23.1493 9.3867 23.7587 11.3547V11.3667L25.2587 16.3734V16.3827C25.4056 16.8557 25.319 17.3705 25.0253 17.7694Z" fill="url(#paint0_linear)"/>
<defs>
<linearGradient id="paint0_linear" x1="16" y1="0" x2="16" y2="32" gradientUnits="userSpaceOnUse">
<stop stop-color="#5051DB"/>
<stop offset="1" stop-color="#7E37B6"/>
</linearGradient>
</defs>
</svg>
