<svg width="24" height="24" viewBox="0 0 24 24" fill="none" xmlns="http://www.w3.org/2000/svg">
<g opacity="0.5">
<path d="M19.5002 3.15407L10.7502 11.0524C10.2271 11.5314 10.1914 12.3437 10.6703 12.8667C10.6958 12.8945 10.7224 12.9211 10.7502 12.9466L19.5002 20.8457C20.0147 21.306 20.8049 21.2621 21.2652 20.7476C21.4737 20.5145 21.5873 20.2118 21.5835 19.8991V4.10075V4.10074C21.5918 3.41044 21.039 2.84409 20.3487 2.83578C20.036 2.83202 19.7332 2.94559 19.5002 3.15408L19.5002 3.15407Z" fill="#73798C"/>
<path d="M7.14298 2H2.69035C2.30908 2 2 2.30908 2 2.69035V21.3096C2 21.6909 2.30908 22 2.69035 22H7.14298C7.52425 22 7.83333 21.6909 7.83333 21.3096V2.69035C7.83333 2.30908 7.52425 2 7.14298 2Z" fill="#73798C"/>
</g>
</svg>
