<svg width="24" height="24" viewBox="0 0 24 24" fill="none" xmlns="http://www.w3.org/2000/svg">
<g opacity="0.5">
<g clip-path="url(#clip0)">
<path d="M12.8334 11.0524L4.08343 3.15409C3.56891 2.6938 2.77868 2.73777 2.31839 3.25228C2.1099 3.48534 1.99633 3.78808 2.00009 4.10076V19.8991L2.00009 19.8991C1.99178 20.5894 2.54465 21.1557 3.23495 21.164C3.54763 21.1678 3.85037 21.0542 4.08343 20.8458L12.8334 12.9474C13.3567 12.4708 13.3945 11.6601 12.9178 11.1368C12.891 11.1074 12.8629 11.0792 12.8334 11.0524L12.8334 11.0524Z" fill="#73798C"/>
<path d="M21.3097 2H16.8571C16.4758 2 16.1667 2.30908 16.1667 2.69035V21.3096C16.1667 21.6909 16.4758 22 16.8571 22H21.3097C21.691 22 22.0001 21.6909 22.0001 21.3096V2.69035C22.0001 2.30908 21.691 2 21.3097 2Z" fill="#73798C"/>
</g>
</g>
<defs>
<clipPath id="clip0">
<rect width="20" height="20" fill="white" transform="translate(2 2)"/>
</clipPath>
</defs>
</svg>
