<svg width="20" height="20" viewBox="0 0 20 20" fill="none" xmlns="http://www.w3.org/2000/svg">
<path d="M10.6457 0.396377L13.6197 6.28893L19.3437 6.85605C19.7375 6.88878 20.0302 7.23459 19.9975 7.62843C19.9834 7.79825 19.9091 7.95746 19.7881 8.07741L15.0774 12.7468L16.8239 19.0918C16.9263 19.4776 16.6967 19.8734 16.311 19.9758C16.1402 20.0211 15.9587 20.0023 15.8009 19.923L9.99776 17.0491L4.20265 19.9194C3.8461 20.0987 3.41172 19.955 3.23243 19.5984C3.15305 19.4406 3.13426 19.2591 3.17961 19.0883L4.92614 12.7433L0.211837 8.07386C-0.0688325 7.79566 -0.0708617 7.3426 0.207304 7.0619C0.327247 6.94087 0.486443 6.86661 0.656247 6.8525L6.38025 6.28538L9.34981 0.396378C9.53303 0.0384908 9.97166 -0.103087 10.3295 0.0801557C10.4655 0.149776 10.5761 0.260403 10.6457 0.396377Z" fill="#5152D0"/>
</svg>
