<svg width="18" height="18" viewBox="0 0 18 18" fill="none" xmlns="http://www.w3.org/2000/svg">
<path d="M17.0746 15.8282L12.4576 11.21C14.6529 8.32342 14.0931 4.2033 11.2073 2.00741C8.32149 -0.188468 4.20243 0.371439 2.0071 3.258C-0.188208 6.14456 0.371555 10.2647 3.25737 12.4606C5.60615 14.2478 8.8585 14.2478 11.2073 12.4606L15.8244 17.0788C16.1721 17.4181 16.7269 17.4181 17.0746 17.0788C17.4196 16.7334 17.4196 16.1737 17.0746 15.8282ZM2.48302 7.25592V7.25592C2.48302 4.61899 4.62013 2.48133 7.25638 2.48133C9.89263 2.48133 12.0297 4.61899 12.0297 7.25592C12.0297 9.89285 9.89263 12.0305 7.25638 12.0305C4.62142 12.0274 2.48614 9.89155 2.48302 7.25592L2.48302 7.25592Z" fill="#73798C"/>
</svg>
