<svg width="72" height="72" viewBox="0 0 72 72" fill="none" xmlns="http://www.w3.org/2000/svg">
<circle cx="36" cy="36" r="36" fill="#F5F7F9"/>
<path d="M36.0001 35.1818C41.4225 35.1818 45.8182 30.7861 45.8182 25.3636C45.8182 19.9412 41.4225 15.5455 36.0001 15.5455C30.5776 15.5455 26.1819 19.9412 26.1819 25.3636C26.1819 30.7861 30.5776 35.1818 36.0001 35.1818Z" fill="#E3E6EB"/>
<path d="M36 38.4545C26.0636 38.4655 18.0115 46.115 18 55.5545C18 56.0516 18.4242 56.4545 18.9474 56.4545H53.0526C53.5758 56.4545 54 56.0516 54 55.5545V55.5547C53.9886 46.1152 45.9366 38.4656 36.0002 38.4545L36 38.4545Z" fill="#E3E6EB"/>
</svg>
