<svg width="24" height="24" viewBox="0 0 24 24" fill="none" xmlns="http://www.w3.org/2000/svg">
<g clip-path="url(#clip0)">
<path d="M23.888 5.83224C23.8196 5.8032 23.7405 5.81864 23.688 5.87124L13.941 15.6162C12.8672 16.6895 11.1268 16.6895 10.053 15.6162L0.310002 5.87124C0.257819 5.81813 0.178318 5.80262 0.110002 5.83224C0.0429641 5.86112 -0.000338012 5.92725 1.98779e-06 6.00024V18.0002C2.15458e-06 19.1048 0.895433 20.0002 2 20.0002H22C23.1046 20.0002 24 19.1048 24 18.0002V6.00024V6.00024C24.0003 5.92669 23.956 5.86028 23.888 5.83224V5.83224Z" fill="white"/>
<path d="M11.115 14.556C11.6036 15.0432 12.3944 15.0432 12.883 14.556L22.569 4.87C22.7027 4.73626 22.7496 4.53851 22.69 4.359C22.58 4.03 22.274 4 22 4H2.00001C1.72501 4 1.41701 4.03 1.30901 4.359V4.359C1.24945 4.53851 1.29627 4.73626 1.43001 4.87L11.115 14.556Z" fill="white"/>
</g>
<defs>
<clipPath id="clip0">
<rect width="24" height="24" fill="white"/>
</clipPath>
</defs>
</svg>
