<svg width="54" height="54" viewBox="0 0 54 54" fill="none" xmlns="http://www.w3.org/2000/svg">
<circle cx="27" cy="27" r="24" fill="#F5F7F9"/>
<path d="M53 27C53 20.5933 50.6345 14.4121 46.3574 9.64223C42.0802 4.87233 36.1925 1.84957 29.8237 1.15378C23.4549 0.457996 17.0534 2.13817 11.8472 5.87202C6.64097 9.60586 2.99667 15.1305 1.61332 21.386C0.229972 27.6416 1.20499 34.1877 4.35134 39.7686C7.49769 45.3496 12.5938 49.5723 18.6622 51.6268C24.7305 53.6814 31.3438 53.423 37.2334 50.9014C43.123 48.3798 47.8742 43.7724 50.5757 37.9631" stroke="url(#paint0_linear)"/>
<path d="M20 18.4645V35.5358V35.5359C20 36.3445 20.6256 37 21.3973 37C21.6278 37 21.8547 36.9402 22.0578 36.8261L37.2627 28.2905C37.9428 27.9084 38.1985 27.021 37.8339 26.3084C37.7039 26.0543 37.5052 25.846 37.2627 25.7098L22.0577 17.1742C21.3777 16.792 20.5307 17.0598 20.166 17.7723C20.057 17.9852 20 18.223 20 18.4645L20 18.4645Z" fill="#5152D0"/>
<defs>
<linearGradient id="paint0_linear" x1="13" y1="5" x2="47" y2="43.5" gradientUnits="userSpaceOnUse">
<stop stop-color="#5152D0"/>
<stop offset="1" stop-color="#4CC0C8"/>
</linearGradient>
</defs>
</svg>
