<svg width="48" height="48" viewBox="0 0 48 48" fill="none" xmlns="http://www.w3.org/2000/svg">
<path d="M24 48C37.2548 48 48 37.2548 48 24C48 10.7452 37.2548 0 24 0C10.7452 0 0 10.7452 0 24C0 37.2548 10.7452 48 24 48Z" fill="#F5F7F9"/>
<path d="M21.4859 14H16.7364C16.3297 14 16 14.3372 16 14.7531V33.2469C16 33.6628 16.3297 34 16.7364 34H21.4859C21.8925 34 22.2223 33.6628 22.2223 33.2469V14.7531C22.2223 14.3372 21.8925 14 21.4859 14Z" fill="#73798C"/>
<path d="M31.2637 14H26.5142C26.1075 14 25.7778 14.3372 25.7778 14.7531V33.2469C25.7778 33.6628 26.1075 34 26.5142 34H31.2637C31.6704 34 32.0001 33.6628 32.0001 33.2469V14.7531C32.0001 14.3372 31.6704 14 31.2637 14Z" fill="#73798C"/>
</svg>
